<?xml version="1.0" encoding="UTF-8" standalone="no"?><!DOCTYPE svg PUBLIC "-//W3C//DTD SVG 1.1//EN" "http://www.w3.org/Graphics/SVG/1.1/DTD/svg11.dtd"><svg width="100%" height="100%" viewBox="0 0 302 224" version="1.1" xmlns="http://www.w3.org/2000/svg" xmlns:xlink="http://www.w3.org/1999/xlink" xml:space="preserve" xmlns:serif="http://www.serif.com/" style="fill-rule:evenodd;clip-rule:evenodd;stroke-miterlimit:22.926;"><g id="Objects"><rect x="11.397" y="0" width="85.84" height="99.276" style="fill:#683dc1;"/><rect x="15.956" y="4.483" width="76.72" height="90.309" style="fill:#76a3ff;"/><rect x="113.666" y="0" width="85.84" height="99.276" style="fill:#683dc1;"/><rect x="118.226" y="4.483" width="76.72" height="90.309" style="fill:#76a3ff;"/><rect x="215.935" y="0" width="85.84" height="99.276" style="fill:#683dc1;"/><rect x="220.495" y="4.483" width="76.72" height="90.309" style="fill:#76a3ff;"/><rect x="11.397" y="47.396" width="85.84" height="4.483" style="fill:#683dc1;"/><rect x="113.666" y="47.396" width="85.84" height="4.483" style="fill:#683dc1;"/><rect x="215.935" y="47.396" width="85.84" height="4.483" style="fill:#683dc1;"/><path d="M254.046,211.848l5.124,0l-1.543,-1.587c-0.368,-0.379 -0.4,-0.724 -0.154,-0.972c0.245,-0.25 0.768,-0.404 1.509,-0.404l5.514,0l0,0.886l-4.653,0c-0.263,0 -0.449,0.055 -0.536,0.144c-0.087,0.089 -0.077,0.211 0.053,0.346l1.543,1.587l3.593,0l0,11.872l-1.588,0c-1.607,0 -3.575,-0.672 -4.374,-1.494l-4.772,-4.91l-0.364,-0.374l-3.5,-3.601l-0.036,-0.038c-0.011,-0.013 -0.024,-0.026 -0.034,-0.038c-0.011,-0.013 -0.022,-0.026 -0.032,-0.038l-0.03,-0.038c-0.01,-0.012 -0.019,-0.025 -0.029,-0.037l-0.025,-0.038c-0.008,-0.012 -0.016,-0.024 -0.024,-0.036l-0.022,-0.037l-0.02,-0.036l-0.017,-0.036l0,0l-0.016,-0.036l-0.014,-0.034l-0.011,-0.035l-0.01,-0.035l-0.007,-0.034l0,0l-0.006,-0.034l-0.004,-0.033l-0.001,-0.033l0,-0.032l0.002,-0.032l-0.001,0c0.002,-0.011 0.003,-0.021 0.004,-0.032l0,0c0.002,-0.01 0.005,-0.02 0.007,-0.031l0.007,-0.03l0.01,-0.03l0.011,-0.03l0.014,-0.029l0.015,-0.028c0.005,-0.01 0.011,-0.019 0.017,-0.029l0.019,-0.027l0.02,-0.027c0.007,-0.008 0.014,-0.017 0.023,-0.026c0.007,-0.008 0.015,-0.017 0.024,-0.025l0.026,-0.026c0.008,-0.008 0.017,-0.016 0.027,-0.024l0.029,-0.024l0.032,-0.023l0.032,-0.023l0.035,-0.021l0.036,-0.021l0.038,-0.021l0.039,-0.02l0.042,-0.019l0.043,-0.019l0.044,-0.017l0.046,-0.017c0.031,-0.011 0.064,-0.021 0.097,-0.032l0.051,-0.015l0.052,-0.013l0.054,-0.013l0.056,-0.012l0.057,-0.012l0.059,-0.01l0.06,-0.01l0.061,-0.008l0.001,0c0.02,-0.003 0.041,-0.006 0.063,-0.009l0.064,-0.007l0.066,-0.006c0.022,-0.002 0.045,-0.004 0.067,-0.005c0.023,-0.002 0.047,-0.003 0.07,-0.004l0.07,-0.003l0.072,-0.003l0.074,-0.001l0.074,-0.001l2.677,0Zm10.45,-2.963l1.406,0c0.742,0 1.565,0.154 2.295,0.404c0.729,0.248 1.367,0.593 1.735,0.972l1.543,1.587l7.801,0l0.076,0.001c0.025,0 0.051,0 0.076,0.001c0.026,0.001 0.051,0.001 0.077,0.003l0.076,0.003c0.026,0.001 0.052,0.002 0.078,0.004l0.077,0.005c0.026,0.002 0.053,0.004 0.079,0.006l0.078,0.007l0.078,0.009l0.079,0.008c0.026,0.003 0.053,0.006 0.079,0.01l0.079,0.01l0.079,0.012l0.08,0.012l0.079,0.013l0.079,0.013l0,0l0.08,0.015c0.052,0.011 0.106,0.021 0.158,0.032l0.079,0.017c0.026,0.005 0.052,0.012 0.078,0.017l0.079,0.019l0.079,0.019l0.078,0.02l0.077,0.021l0.078,0.021l0.077,0.021l0.076,0.023l0.077,0.023l0.075,0.024c0.026,0.008 0.051,0.016 0.076,0.024l0.074,0.026l0.074,0.025c0.025,0.009 0.049,0.018 0.074,0.026l0.072,0.027l0.072,0.027l0.071,0.029l0.071,0.028l0.07,0.029l0.068,0.03l0.069,0.03l0.067,0.03l0.066,0.031l0,0l0.065,0.032l0,0l0.064,0.032l0.063,0.032l0.063,0.033l0.061,0.033l0.059,0.034l0,0l0.059,0.034l0.057,0.035l0.056,0.035l0.055,0.034l0.054,0.036l0,0c0.017,0.012 0.034,0.024 0.051,0.036l0.051,0.036l0.049,0.037c0.016,0.012 0.033,0.024 0.049,0.036c0.015,0.013 0.031,0.025 0.046,0.038c0.015,0.012 0.03,0.025 0.045,0.037l0.043,0.038l0.041,0.038l0.04,0.038l0.038,0.038l3.5,3.601l0.364,0.374l4.773,4.91c0.798,0.822 0.136,1.494 -1.47,1.494l-2.678,0l-2.194,0l-18.165,0l-2.193,0l-1.09,0l0,-11.872l5.246,0l-1.543,-1.587c-0.13,-0.135 -0.358,-0.257 -0.619,-0.346c-0.261,-0.089 -0.554,-0.144 -0.817,-0.144l-2.267,0l0,-0.886Z" style="fill:#6110d9;"/><path d="M83.21,171.493c-0.148,-0.048 -0.316,-0.084 -0.492,-0.103l-0.417,-0.045l0.303,13.222l0.418,0.045c0.064,0.007 0.128,0.011 0.188,0.012l0,-13.131Zm-42.818,14.062l14.249,0c-0.591,0 -1.199,-0.222 -1.351,-0.494l-0.105,-0.186l-0.173,-0.308l29.592,0l0.173,0.308l0.105,0.186c0.152,0.272 -0.206,0.494 -0.796,0.494l1.124,0l0,1.879l-19.238,0l19.238,34.278l0,0.563l-3.375,0l-19.554,-34.841l-18.835,0l-1.054,-1.879Zm42.818,-0.931c0.521,0.017 0.916,-0.137 0.91,-0.374l-0.281,-12.261c-0.004,-0.188 -0.261,-0.379 -0.629,-0.496l0,13.131Zm0,37.088l0,0.563l0.316,0l-0.316,-0.563Zm0,-36.157l101.431,0c-0.591,0 -1.198,-0.222 -1.351,-0.494l-0.105,-0.186l-0.172,-0.307l-0.357,0.044c-0.537,0.065 -1.213,-0.098 -1.504,-0.362l-13.481,-12.261c-0.291,-0.264 -0.089,-0.534 0.448,-0.599l0.367,-0.045l14.537,13.222l29.582,0l0.173,0.308l0.105,0.186c0.152,0.272 -0.206,0.494 -0.797,0.494l20.678,0l1.053,1.879l-18.835,0l19.555,34.841l-3.691,0l-19.554,-34.841l-128.082,0l0,-1.879Z" style="fill:#6110d9;"/><path d="M188.454,184.657l0,0.159l-5.328,0l-0.129,-0.159l5.457,0Zm0,-6.736c-0.58,0.006 -1.022,-0.025 -1.638,-0.245c-0.715,-0.255 0.184,-0.396 1.638,-0.449l0,0.694Zm0,4.717c-0.152,-0.017 -0.32,-0.044 -0.51,-0.084c-0.694,-0.147 -0.336,-0.367 0.51,-0.586l0,0.67Zm0,2.178l0,-0.159l1.76,0l0.13,0.159l-1.89,0Zm3.443,-0.159l0,0.159l-0.712,0l-0.13,-0.159l0.842,0Zm0,-5.913c-0.562,0.064 -0.98,0.222 -1.684,0.426c-1.31,0.38 -1.174,-0.327 -0.259,-0.752c0.915,-0.424 3.265,-0.311 0.948,-0.465c-1.156,-0.077 -1.87,-0.037 -2.448,-0.032l0,-0.694c1,-0.036 2.261,-0.031 3.443,0.007l0,1.51Zm0,3.523l0,-0.885c-1.263,0.147 -2.597,0.366 -3.443,0.586l0,0.67c0.972,0.106 1.352,-0.217 3.137,-0.349l0.306,-0.022Zm0,1.501c-0.685,0.384 -1.082,-0.32 -0.704,-0.857c0.129,-0.183 0.425,-0.328 0.704,-0.435l0,1.292Zm0,1.048l0.841,0l-0.13,-0.159l-0.711,0l0,0.159Zm48.232,4.609c-1.698,-3.006 -4.583,-5.784 -7.072,-8.044c-1.166,0.536 -2.246,1.01 -2.883,1.402c-1.207,0.744 -2.782,1.362 -4.449,1.733c-3.542,1.446 -20.403,-0.251 -24.849,-0.944l-0.139,-0.416c-2.278,-0.215 -4.618,-0.379 -5.874,-0.365c-1.963,0.023 -2.046,0.299 -2.818,0.88c-0.051,0.038 -0.1,0.07 -0.148,0.097l0,-1.292c0.546,-0.212 1.019,-0.281 0,-0.209l0,-0.885l0.049,-0.006c1.749,-0.201 4.838,-0.029 8.32,0.366l-0.174,-0.522c0.683,0 1.887,0.018 3.412,0.056c-1.663,-0.394 -3.016,-0.741 -3.858,-0.983l0.206,-0.367c-2.23,-0.49 -4.57,-0.946 -5.912,-1.106c-0.97,-0.116 -1.56,-0.131 -2.043,-0.076l0,-1.51l0.152,0.005c2.022,0.071 5.147,0.636 8.5,1.442l0.257,-0.46c2.598,0.334 12.092,1.781 18.803,3.172c0.81,-0.648 1.844,-1.344 2.843,-2.062c1.551,-1.117 3.702,-2.684 5.964,-3.744c-0.115,-0.384 -0.337,-0.762 -0.844,-1.109c0.043,-0.01 0.083,-0.02 0.125,-0.029c-1.309,-0.706 -2.61,-1.358 -3.242,-1.605c-1.508,-0.591 -3.979,-0.153 -5.241,0.169c-1.969,0.501 -3.727,-2.097 -5.774,-2.038c-0.917,0.026 -1.392,-0.377 -1.626,-0.804c-0.233,-0.427 -0.566,-1.343 -1.476,-1.767c-0.628,-0.293 -1.465,-0.851 -2.151,-1.46c-0.618,-0.191 -1.281,-0.41 -1.995,-0.661c-1.629,-2.988 3.402,-3.909 7.19,-4.052c3.189,-0.121 7.273,0.224 9.472,0.728c3.606,0.827 5.316,2.75 6.354,4.646c0.661,1.208 0.431,1.691 1.765,2.752c-0.08,0.004 -0.172,0.006 -0.274,0.006c0.343,0.296 0.714,0.591 1.092,0.869c0.007,-0.031 0.014,-0.06 0.019,-0.089c3.135,1.173 5.893,2.353 8.319,3.525l0,14.757Zm0,18.599l0,-5.956c-2.251,-1.113 -4.509,-2.203 -6.654,-3.198l6.654,0l0,-9.272l-0.099,-0.007l0.099,-0.019l0,-0.001l-0.254,0.047c-1.837,0.338 -20.534,2.535 -25.858,3.916c-0.929,0.241 -1.326,0.522 -1.334,0.822c-0.248,0.347 -0.252,0.779 -0.039,1.262c0.061,0.138 0.372,0.369 0.885,0.671c1.344,3.301 10.359,14.454 12.307,17.078l0.557,0.007c-1.953,0.831 -5.674,1.37 -7.509,1.6c-2.523,0.317 -0.189,1.534 0.726,1.532l13.915,-0.035c2.074,-0.006 3.204,-0.957 0.711,-2.984l0.21,0.003c-0.46,-0.943 -1.771,-5.212 -3.699,-9.392c3.143,1.33 6.369,2.676 9.382,3.926m0,7.772c-0.044,-0.038 -0.082,-0.077 -0.114,-0.116l-0.509,-0.623c-0.13,-0.159 -0.148,-0.308 -0.072,-0.436l-0.285,0l-0.781,-0.955l1.761,0l0,2.13Zm0,-26.225l0.074,-0.014l-0.074,-0.132l0,-14.757c0.996,0.482 1.936,0.962 2.823,1.44l0,22.762l-2.823,0l0,-9.272l0.101,0.008l-0.026,-0.048l-0.075,0.014l0,-0.001Zm2.823,19.623c-0.913,-0.378 -1.857,-0.769 -2.823,-1.17l0,-5.956c0.945,0.467 1.889,0.938 2.823,1.408l0,5.718Zm0,5.427l-0.086,0c0.03,0.013 0.058,0.027 0.086,0.041l0,1.862c-0.076,0.004 -0.157,0.006 -0.24,0.006l-0.001,0c-1.007,0 -2.109,-0.32 -2.582,-0.734l0,-2.13l2.823,0l0,0.955Zm0,0.041l0,1.862c0.943,-0.052 1.418,-0.412 1.064,-0.844l-0.509,-0.623c-0.117,-0.143 -0.31,-0.277 -0.555,-0.395m14.281,-23.499c0.827,2.008 0.556,4.684 -7.244,5.259c-1.452,0.107 -3.116,0.203 -4.887,0.29l15.326,0l-5.768,-14.3c-0.235,-0.584 0.765,-0.978 2.223,-0.875c1.458,0.103 2.843,0.666 3.079,1.25l6.179,15.323c0.236,0.584 -0.764,0.977 -2.222,0.875c-0.292,-0.022 -0.583,-0.061 -0.861,-0.115l-15.304,0l4.458,5.452l-0.934,0l3.343,4.088l0.935,0l2.239,2.738c0.586,0.305 1.037,0.536 1.322,0.675l-0.63,0.172l0.169,0.206c0.765,0.234 1.462,0.526 1.945,0.839c0.269,0.174 0.582,0.389 0.9,0.626l14.604,0l0.78,0.955l-0.284,0c0.285,0.128 0.51,0.277 0.641,0.436l0.509,0.623c0.383,0.468 -0.205,0.85 -1.304,0.85l-0.001,0c-1.1,0 -2.313,-0.382 -2.696,-0.85l-0.509,-0.623c-0.13,-0.159 -0.149,-0.308 -0.072,-0.436l-10.529,0c0.996,0.973 1.389,1.933 -0.817,1.94l-15.166,0.048c-1.324,-0.04 -2.576,-1.274 -0.853,-1.591c0.663,-0.122 2.115,-0.218 3.607,-0.397l-6.459,0l0,-0.955l10.421,0c0.188,-0.116 0.33,-0.245 0.414,-0.387l-0.582,0.159c-1.718,-0.728 -5.571,-2.308 -10.253,-4.244l0,-5.718c3.437,1.728 6.74,3.438 9.479,4.868l-3.289,-4.022l-0.934,0l-4.458,-5.452l-0.798,0l0,-22.762c10.922,5.886 13.803,11.455 14.281,15.055" style="fill:#6110d9;"/><path d="M109.743,175.061c-0.361,-0.178 -1.028,-0.351 -1.95,-0.491c-2.18,-0.33 -3.241,-1.321 -1.567,-1.868c1.674,-0.547 1.894,-0.986 -0.075,-1.729c-1.968,-0.743 -1.759,-2.001 0.34,-2.166c2.098,-0.165 1.697,-0.263 1.712,-0.917c0.013,-0.52 0.636,-0.985 1.54,-1.264l0,8.435Zm-1.081,1.352c-0.296,-0.258 0.016,-0.495 0.717,-0.666c0.145,-0.036 0.267,-0.074 0.364,-0.113l0,7.229l-0.321,-0.283l-0.912,0.714l1.233,0.328l0,2.461l-5.534,-0.851l-0.001,0c-2.251,-0.228 -4.77,-1.625 -3.463,-2.648l4.626,-3.619c-0.491,-0.594 -0.069,-0.861 1.222,-0.955l1.956,-1.53c0.03,-0.023 0.068,-0.046 0.113,-0.067m9.111,14.024l-0.016,-0.038l-0.008,-0.02l-0.014,-0.039l-0.007,-0.02c-0.007,-0.017 -0.012,-0.035 -0.018,-0.053l-0.005,-0.017l-0.011,-0.037l-0.004,-0.019l-0.009,-0.037l-0.004,-0.02l-0.005,-0.029l-0.004,-0.023l0,-0.001l-0.007,-0.045l0,-0.005l-0.001,-0.011l-0.003,-0.034l-0.001,-0.02l0,-0.033l0,-0.014l0,-0.037l0,-0.013c0.001,-0.014 0.003,-0.029 0.004,-0.044l0.001,-0.003l0,-0.003l0.005,-0.04l0.004,-0.019l0.005,-0.028l0.004,-0.016l0.007,-0.028l0.004,-0.017l0.011,-0.035l0.002,-0.006l0.001,-0.002l0.003,-0.01l0.011,-0.032l0.006,-0.014l0.012,-0.028l0.006,-0.014l0.016,-0.033l0.004,-0.008l0.011,-0.023l-0.011,0.023l0.011,-0.021l0,0.966Zm0,4.534l-0.557,0c-1.394,0 -2.83,-0.422 -3.19,-0.938c-0.359,-0.516 0.488,-0.937 1.882,-0.937l1.865,0l0,1.875Zm-8.03,-19.337c0.424,-0.172 0.401,-0.376 0,-0.573l0,-8.435c1.069,-0.33 2.531,-0.401 3.841,0.002c0.777,-0.513 2.412,-0.648 4.189,-0.547l0,21.57l-1.109,0c-0.591,0 -1.199,-0.179 -1.351,-0.397l-0.104,-0.15l-0.142,-0.203l-5.324,-0.818l0,-2.461l1.233,0.328l-1.233,-1.087l0,-7.229Zm8.03,-9.553c2.469,0.139 5.213,0.732 6.316,1.392c2.009,1.203 3.06,1.191 5.031,1.523c1.971,0.332 3.586,1.832 2.703,2.457c-1.168,0.827 0.05,1.196 2.457,1.588c2.408,0.392 2.289,0.97 0.817,1.296c-1.473,0.324 -2.123,0.904 -0.311,1.234c1.192,0.218 1.783,0.518 1.833,0.96l3.927,1.468c1.611,0.088 2.487,0.37 2.786,1.042l1.734,0.648l0,3.243l-0.967,-0.361l0.301,1.441l0.666,-0.293l0,3.073l-0.425,0.083l0.16,0.229l0.104,0.15c0.153,0.218 -0.206,0.397 -0.797,0.397l-2.134,0c0.397,0.224 0.781,0.427 1.151,0.615l0.039,0.019l0.057,0.029l0.035,0.017l0.059,0.031l0.032,0.015l0.063,0.031l0.028,0.014l0.065,0.032l0.025,0.012l0.068,0.034l0.021,0.01l0.071,0.035l0.018,0.008l0.073,0.036l0.015,0.007l0.076,0.037l0.011,0.005l0.079,0.038l0.007,0.004l0.082,0.039l0.004,0.002l0.085,0.04l0.001,0.001l0.084,0.04l0.002,0.001l0.082,0.04l0.005,0.002l0.078,0.037l0.008,0.004l0.074,0.035l0.012,0.005l0.07,0.034l0.014,0.006l0.084,0.04l0.063,0.03l0.02,0.009l0.059,0.029l0.023,0.011l0.057,0.027l0.024,0.011l0.053,0.026l0.028,0.013l0.05,0.024l0.029,0.014l0.008,0.004l0,5.767l-2.712,0c-0.201,0.048 -0.407,0.094 -0.619,0.139l0,0.001l0,-0.001l0,0c1.167,0.995 2.267,2.024 3.331,3.05l0,6.012l-0.074,-0.044c-0.051,-0.016 -0.104,-0.032 -0.157,-0.049c0.076,0.106 0.153,0.212 0.231,0.317l0,6.527c-0.155,-0.276 -0.289,-0.553 -0.414,-0.826c-0.461,-0.134 -0.819,-0.32 -0.962,-0.525l-0.378,-0.541c-0.096,-0.138 -0.083,-0.267 0.02,-0.379l-12.819,0c0.257,0.112 0.452,0.241 0.548,0.379l0.377,0.541c0.284,0.406 -0.384,0.739 -1.484,0.739l-0.001,0c-1.1,0 -2.232,-0.333 -2.516,-0.739l-0.377,-0.541c-0.097,-0.138 -0.083,-0.267 0.02,-0.379l-0.284,0l-0.579,-0.829l15.631,0l-0.536,-0.769c-3.392,-2.771 -10.497,-8.067 -13.31,-10.861c-0.343,-0.341 -0.589,-0.791 -1.466,-1.222l-8.763,0l0,-1.875l3.059,0c-1.222,-0.551 -2.116,-1.163 -2.566,-1.807c-0.098,-0.142 -0.174,-0.282 -0.226,-0.42l-0.026,0c-0.015,-0.022 -0.03,-0.044 -0.044,-0.066l-0.016,-0.027l-0.026,-0.041l-0.015,-0.027l-0.025,-0.042l-0.012,-0.021l-0.026,-0.048l-0.008,-0.014l-0.001,-0.003l-0.003,-0.005l-0.027,-0.054l-0.01,-0.022l-0.018,-0.038l-0.009,-0.023l-0.001,-0.001l0,-0.966l0.011,-0.022l-0.011,0.02l0.011,-0.02l0.001,0l0.024,-0.042l0.004,-0.007l0.021,-0.033l0.008,-0.012l0.021,-0.03l0.007,-0.01l0.029,-0.039l0,0l0.001,-0.002c0.021,-0.027 0.042,-0.053 0.065,-0.079l0.008,-0.009l0.029,-0.034l0.004,-0.005c0.036,-0.04 0.074,-0.08 0.115,-0.12l0.012,-0.013l0.032,-0.031l0.005,-0.004c0.027,-0.027 0.056,-0.053 0.085,-0.08l0.003,-0.004l0.047,-0.043l0.026,-0.023l0.022,-0.02l0.049,-0.043l0.008,-0.007l0.04,-0.035l0.002,-0.002l0.039,-0.034l0.012,-0.01l0.03,-0.026l0.022,-0.019l0.02,-0.017l0.033,-0.029l0.01,-0.008l0.087,-0.075l0.01,-0.009l0.033,-0.029l0.022,-0.019l0.022,-0.02l0.033,-0.029l0.012,-0.01l0.043,-0.04l0.002,-0.001l0.045,-0.04l0.009,-0.009l0.036,-0.032c0.198,-0.182 0.4,-0.383 0.594,-0.615l-1.793,0l0,-21.57Zm27.293,32.079c2.947,2.845 5.606,5.669 8.61,7.694l-0.742,0.095c0.206,0.139 0.416,0.274 0.629,0.406c0.751,0.463 1.762,0.959 2.775,1.468l7.615,0l0.579,0.829l-0.285,0c0.258,0.112 0.452,0.241 0.549,0.379l0.377,0.541c0.284,0.406 -0.384,0.739 -1.484,0.739l-0.001,0c-1.099,0 -2.232,-0.333 -2.516,-0.739l-0.377,-0.541c-0.097,-0.138 -0.083,-0.267 0.02,-0.379l-2.871,0c1.313,0.669 2.33,1.348 2.523,1.985c0.469,1.54 -2.517,1.605 -5.244,0.683c-1.296,-0.437 -2.197,-1.043 -2.989,-1.932c0.041,0.024 0.083,0.048 0.125,0.072c-0.276,-0.263 -0.53,-0.536 -0.769,-0.808l-3.618,0c0.894,0.692 2.258,1.467 3.358,2.235c1.137,0.726 1.966,1.448 1.917,2.086c-0.116,1.496 -3.203,1.41 -5.643,0.394c-1.159,-0.483 -1.849,-1.107 -2.317,-1.997c0.033,0.025 0.067,0.05 0.1,0.075c-0.117,-0.172 -0.224,-0.346 -0.321,-0.522l0,-6.527c0.908,1.243 1.847,2.406 2.911,3.427l2.919,0c-0.341,-0.42 -0.662,-0.82 -0.99,-1.168c-0.067,-0.071 -0.18,-0.163 -0.332,-0.276l-0.874,0.112c-0.662,-0.481 -1.975,-1.306 -3.634,-2.319l0,-6.012Zm0,-8.956l0.038,0.019l0.033,0.015l0.043,0.021l0.035,0.017l0.04,0.02l0.037,0.018l0.036,0.018l0.04,0.019l0.006,0.003c0.097,0.049 0.193,0.096 0.286,0.144l0.004,0.002l0.021,0.012l0.05,0.025l0.004,0.002l0.047,0.025l0.02,0.01l0.016,0.009l0.054,0.028l0.013,0.008l0.056,0.029l0.01,0.006l0.057,0.031c0.045,0.025 0.09,0.05 0.133,0.074l0.003,0.002l0.061,0.035l0.064,0.037l0.001,0.001l0.059,0.035l0.003,0.003l0.006,0.003c0.059,0.036 0.118,0.072 0.174,0.108l0.015,0.01l0.044,0.029l0.057,0.038l0.018,0.011l0.034,0.024l0.023,0.017l0.023,0.015c0.482,0.27 0.3,0.086 0.355,0.279l0.038,0.033l0.001,0.001l0.007,0.006l0.03,0.029l0.008,0.006l0.007,0.007l0.008,0.007l0.007,0.007l0.007,0.007l0.007,0.007l0.008,0.007l0.007,0.007l0.007,0.007l0.029,0.028l0.006,0.008l0.008,0.007l0.007,0.007l0.013,0.013l0.001,0.001l0.006,0.007l0.014,0.015l0.014,0.014l0.006,0.007l0.007,0.007l0.02,0.022l0.009,0.011l0.004,0.004l0.025,0.03l0.007,0.007l0.001,0l0.011,0.014l0.019,0.023l0.007,0.008l0.004,0.005l0.002,0.002l0.006,0.008l0.018,0.023l0.006,0.007l0.005,0.007l0.001,0.001l0.006,0.007l0.029,0.039l-0.196,0c0.072,0.115 0.162,0.253 0.279,0.42c0.342,0.489 0.049,1.149 -0.802,1.807l5.681,0c1.395,0 2.831,0.421 3.191,0.937c0.359,0.516 -0.488,0.938 -1.883,0.938l-8.722,0l0,-5.767Zm0,-9.515l7.741,2.895c0.885,0.331 1.423,0.701 1.682,1.059l0.22,0l0.083,0.119l0.596,0.341l0.619,0.888l0.339,0.485l1.386,1.987l-0.355,0.188l-5.338,0l-0.616,-0.188l-0.409,-0.587l-0.094,-0.134l-0.672,-0.964l-5.182,1.014l0,-3.073l0.966,-0.425l-0.966,-0.362l0,-3.243Z" style="fill:#6110d9;"/><path d="M45.854,175.483l-4.353,0.692l0.62,0.678l3.733,-0.593l0,-0.777Zm0,1.192l0,-0.415l-4.06,0.645l0.582,0.323l3.478,-0.553Zm0,3.504l0,-3.504l-3.183,0.506l1.641,0.796l0.532,0.258c0.073,0.231 0.252,0.514 0.432,0.78c0.095,0.162 0.233,0.369 0.388,0.627c0.112,0.184 0.172,0.364 0.19,0.537m0,35.87c-0.231,-0.103 -0.405,-0.221 -0.493,-0.347l-0.375,-0.528c-0.095,-0.135 -0.081,-0.261 0.023,-0.37l-16.537,0l-0.574,-0.809l16.251,0l-3.16,-4.46l0.935,0l-2.457,-3.467l-0.934,0l-3.276,-4.625l-15.304,0c-0.201,0.047 -0.436,0.08 -0.699,0.098c-1.312,0.087 -2.87,-0.247 -3.463,-0.743l-15.56,-12.998c-0.593,-0.495 -0.005,-0.972 1.307,-1.06c1.311,-0.087 2.87,0.247 3.463,0.742l14.521,12.131l15.326,0c-1.895,-0.074 -3.695,-0.155 -5.298,-0.246c-6.964,-0.395 -10.956,-1.953 -13.299,-3.435l-0.02,-0.001c-0.489,-0.275 -0.904,-0.564 -1.484,-1.099c-5.7,-3.85 -11.799,-10.51 -3.53,-16.752l-0.002,-0.002c0.208,-0.156 0.423,-0.313 0.649,-0.468c-0.016,-0.125 -0.044,-0.253 -0.082,-0.379c-0.059,-0.001 -0.115,-0.002 -0.168,-0.004c0.052,-0.132 0.057,-0.253 0.026,-0.367c-0.037,-0.077 -0.076,-0.155 -0.119,-0.231c-0.374,-0.5 -1.428,-0.911 -2.201,-1.663c-1.651,-1.607 -2.136,-3.208 0.297,-3.91c2.514,-0.724 9.539,-1.17 14.929,0.331c1.744,0.485 4.579,1.177 5.372,1.097c0.793,-0.081 1.114,0.231 -0.198,0.659c-0.301,0.098 -0.671,0.136 -1.087,0.14c0.151,0.135 0.283,0.276 0.393,0.422c0.563,0.751 0.606,1.58 0.298,1.939c-0.309,0.36 0.659,1.137 1.03,1.499c0.372,0.362 0.47,0.704 -0.485,0.682c-1.447,-0.034 -1.022,0.972 -1.44,1.488c0.316,0.05 0.527,0.101 0.586,0.158c0.229,0.223 0.595,0.579 -1.9,0.221c-1.311,-0.188 -2.696,-0.272 -3.823,-0.525c-0.828,-0.021 -1.511,0.038 -1.787,0.243c-0.298,0.223 -0.686,0.933 -0.985,1.687l0.053,0.01c-0.092,0.389 -0.108,0.476 -0.136,0.67c-0.043,-0.005 -0.09,-0.01 -0.14,-0.016l0.12,0.037c0.156,0.046 0.313,0.092 0.473,0.14c0.401,0.114 0.779,0.209 1.125,0.283c0.067,0.039 0.132,0.078 0.193,0.117c2.84,0.874 6.101,1.931 8.765,2.584c1.608,0.393 3.163,0.775 4.599,1.14c2.373,-1.922 7.29,-4.409 8.737,-5.028l1.122,0.248c0.222,-0.252 0.39,-0.546 0.423,-0.867l0,5.334c-0.605,0.408 -1.262,0.808 -1.957,1.174c0.643,-0.036 1.298,-0.071 1.957,-0.102l0,2.888c-1.834,0.053 -3.615,0.055 -5.194,-0.02c-1.768,0.008 -4.014,-0.411 -6.54,-0.972c-1.666,-0.37 -5.311,-1.136 -9.032,-2.001c1.318,1.953 3.218,4.353 5.749,6.799l0.711,0.081c2.217,0.235 8.131,0.806 14.306,1.454l0,6.393l-6.593,0l3.276,4.625l-0.934,0l2.457,3.467l0.934,0l0.86,1.215l0,5.299Zm0,-39.789l3.584,-0.569l-1.561,-0.529l-2.023,0.321l0,0.777Zm25.208,13.127l-0.824,0l0.095,0.135l0.729,0l0,-0.135Zm-25.208,-2.566c5.016,-0.243 10.227,-0.35 12.024,-0.35l0.567,0.443c2.922,-0.335 5.767,-0.481 7.801,-0.31c1.705,0.143 3.658,0.37 4.816,0.585l0,0.501c-0.705,-0.022 -1.559,-0.221 -3.167,-0.312c-2.283,-0.13 0.062,0.041 1.282,0.528c1.219,0.487 1.823,1.138 0.226,0.644c-1.598,-0.492 -2.071,-0.727 -4.066,-0.746c-1.276,-0.012 -3.385,0.127 -5.357,0.309l0.452,0.354c-2.171,0.368 -8.66,1.071 -14.578,1.242l0,-2.888Zm0,-6.406c0.008,-0.077 0.009,-0.156 0,-0.236l0,-3.504l0.508,-0.08l-0.508,0.08l0,-0.415l3.91,-0.621l0.582,0.322l-0.294,0.047l1.013,0.648c0.812,-0.37 1.715,0.296 1.715,0.296c0,0 0.47,-0.086 1.148,0.349c0.678,0.436 -0.02,0.594 -0.02,0.594c0,0 0.588,0.062 1.231,0.354c0.461,0.209 -0.123,0.459 -0.632,0.607l2.624,1.678l-5.687,0.903l-0.534,-0.259c-0.515,0.332 -1.108,0.667 -1.573,0.968l0.388,0.086c-0.386,0.667 -1.838,2.144 -3.871,3.517l0,-5.334Zm25.208,26.435c-2.882,-1.195 -5.651,-2.385 -7.962,-3.452c-0.146,0.601 -0.313,1.229 -0.493,1.866c-0.99,3.51 -2.351,7.303 -2.719,8.535l-0.444,-0.053c0.37,0.085 0.76,0.168 1.161,0.249l5.029,0l0.574,0.809l-0.284,0c0.04,0.018 0.079,0.035 0.117,0.053c0.84,0.105 1.611,0.189 2.252,0.247c2.973,0.268 3.052,1.3 1.578,1.3l-4.053,0c-0.144,0.013 -0.298,0.02 -0.462,0.02l-0.002,0c-0.164,0 -0.329,-0.007 -0.491,-0.02l-8.528,0c-1.646,0 -3.014,-0.525 -3.609,-1.6l-4.285,0c0.257,0.109 0.451,0.235 0.546,0.37l0.375,0.528c0.281,0.397 -0.389,0.722 -1.489,0.722l-0.001,0c-0.752,0 -1.518,-0.151 -2.018,-0.375l0,-5.299l2.299,3.245l4.294,0c-0.043,-0.258 -0.053,-0.534 -0.026,-0.834c-0.129,-0.106 -0.224,-0.201 -0.291,-0.287l-0.988,-0.118c-0.027,-0.964 -1.313,-6.646 -1.058,-10.908c0.008,-0.137 0.017,-0.271 0.029,-0.405l-1.511,0l-2.748,0l0,-6.393c5.989,0.628 12.224,1.329 15.569,1.866c0.599,0.097 1.091,0.201 1.491,0.311l0.005,0.001c1.188,0.158 4.277,1.449 8.143,3.239l0,6.383Zm0,-17.328l0,-0.135l0.73,0l0.095,0.135l-0.825,0Zm10.745,-0.135l0,0.135l-0.729,0l-0.095,-0.135l0.824,0Zm-10.745,-2.198c0.847,0.157 1.268,0.307 0.856,0.414c-0.289,0.074 -0.558,0.096 -0.856,0.087l0,-0.501Zm10.745,23.982c-1.697,-0.667 -3.53,-1.392 -5.405,-2.144c-1.769,-0.711 -3.575,-1.444 -5.34,-2.177l0,-6.383c3.254,1.507 7.058,3.366 10.745,5.205l0,5.499Zm0,-21.649l0,-0.135l0.729,0l0.095,0.135l-0.824,0Zm8.762,25.086c-0.996,-0.418 -4.438,-1.737 -8.762,-3.437l0,-5.499c6.442,3.211 12.525,6.353 14.681,7.415l-0.644,0.166c2.857,0.844 10.112,1.488 12.153,1.741c2.172,0.269 2.714,1.41 1.328,1.41l-12.984,0c-2.295,0 -2.929,-0.554 -5.16,-1.953l-0.612,0.157Z" style="fill:#6110d9;"/><path d="M23.467,223.72l14.665,0l-6.921,-7.729l-3.085,0l-4.455,-5.841l-3.781,-0.224l4.626,6.065l-1.588,0l-9.394,-7.526l-3.555,0l9.395,7.526l-1.589,0l-10.514,-6.065l-3.221,0.224l10.126,5.841l-3.086,0l12.377,7.729Z" style="fill:#6110d9;"/><path d="M135.797,112.819c-0.727,-0.974 -0.243,-1.91 0.853,-2.53c1.581,-0.893 1.185,-2.291 -0.764,-3.184c-1.95,-0.893 -2.319,-3.576 -0.264,-5.056c2.055,-1.479 2.581,-2.667 1.131,-4.677c-1.449,-2.012 -0.362,-5.417 1.852,-5.863c2.213,-0.447 1.879,-0.709 2.351,-2.479c0.822,-3.079 4.365,-5.428 6.262,-3.417c2.713,-3.32 8.812,-0.785 9.916,2.286c1.169,3.255 2.228,3.222 3.968,4.122c1.739,0.899 2.307,4.957 0.988,6.649c-1.745,2.238 -0.784,3.236 1.35,4.297c2.134,1.061 1.611,2.627 -0.088,3.506c-1.699,0.879 -2.753,2.447 -1.173,3.341c1.158,0.655 1.499,1.588 1.054,3.013c-2.115,6.752 -21.567,7.866 -27.436,-0.008" style="fill:#58453f;"/><path d="M58.947,98.05c0.031,2.08 -0.513,4.377 -1.076,5.373c-0.563,0.996 -0.146,3.15 -0.031,4.153c0.115,1.003 -0.029,1.951 -0.968,1.889c-2.095,-0.137 -1.728,5.969 -4.107,4.791c-1.526,-0.756 -4.354,-1.785 -5.38,-0.398c-1.026,1.388 -4.272,9.654 -4.065,10.686c0,0 -6.725,-10.261 -5.387,-12.574c1.37,-2.369 1.819,-7.057 1.161,-9.098c-0.658,-2.041 -1.318,-10.386 3.799,-12.63c5.068,-2.223 15.928,-0.562 16.054,7.808" style="fill:#efb59c;"/><path d="M39.242,108.584c-15.148,19.22 -12.269,40.234 -8.75,50.581c3.519,10.347 17.736,6.318 16.262,-5.972c-1.475,-12.29 -0.965,-24.215 -0.473,-29.131c0.074,-0.747 -0.071,-1.561 -0.377,-2.416c-2.364,-1.639 -5.811,-7.127 -6.662,-13.062" style="fill:#027eb8;"/><path d="M39.242,108.584c-0.416,0.527 -0.815,1.055 -1.204,1.583c0.966,7.098 5.248,9.803 6.602,10.25c0.166,-0.539 0.242,-0.778 0.611,-1.857c-2.882,-1.685 -5.158,-4.041 -6.009,-9.976" style="fill:#fff;"/><path d="M54.389,206.969c-1.747,6.063 -0.717,8.984 1.618,8.984l13.536,0c1.473,0 2.125,-2.856 -0.658,-3.601c-2.782,-0.744 -7.977,-3.024 -9.718,-5.589c-1.741,-2.565 -5.487,-3.702 -4.778,0.206" style="fill:#f77683;"/><path d="M53.398,206.259c0.981,-4.004 6.649,-37.392 11.779,-42.855c5.13,-5.463 8.787,-1.255 10.494,3.314c0.982,2.823 -11.871,35.84 -14.267,42.432l-8.006,-2.891Z" style="fill:#e09d00;"/><path d="M29.644,156.168c0.706,4.771 3.004,11.577 11.647,12.99c8.643,1.413 23.713,2.038 26.937,2.439c3.223,0.4 13.126,-5.982 6.672,-9.228c-6.453,-3.247 -26.066,-8.629 -28.18,-9.424c-2.113,-0.794 -0.116,-0.042 -0.176,-0.064c-5.171,2.715 -10.654,4.337 -16.9,3.287" style="fill:#f4a900;"/><path d="M92.169,210.748c1.299,4.031 1.508,5.618 3.843,5.618l12.985,0c1.385,0 1.652,-3.159 -0.33,-3.904c-1.982,-0.745 -9.557,-2.721 -11.298,-5.286c-1.741,-2.565 -5.909,-0.336 -5.2,3.572" style="fill:#f77683;"/><path d="M69.444,119.904c0.887,-1.291 1.856,-3.228 1.937,-5.405c0.08,-2.179 0,-3.066 0.564,-3.066c0.565,0 0.726,0.564 0.969,1.775c0.241,1.21 4.921,2.339 3.711,4.114c-1.211,1.775 -3.228,3.792 -4.196,5.244c-0.968,1.453 -4.276,0 -2.985,-2.662" style="fill:#ffdecc;"/><path d="M54.44,138.437c-2.412,-2.694 11.712,-17.452 14.598,-20.081l4.568,3.321c-2.104,4.526 -14.027,22.501 -19.166,16.76" style="fill:#005780;"/><path d="M44.386,120.25c2.551,2.583 5.801,6.612 8.562,8.88c6.247,5.133 11.549,9.5 9.099,11.949c-2.449,2.45 -5.329,0.987 -8.641,-1.431c-2.818,-2.058 -12.478,-8.541 -15.297,-12.777c-2.902,-4.36 -0.98,-13.971 6.277,-6.621" style="fill:#016797;"/><path d="M74.684,136.192c4.615,-1.925 9.57,-3.087 12.345,-2.401c2.776,0.687 6.119,2.072 4.965,2.769c-1.154,0.696 -1.672,-0.263 -3.864,-0.623c-2.192,-0.361 0.032,0.113 0.907,1.463c0.875,1.349 1.018,3.151 -0.23,1.785c-1.248,-1.365 -1.556,-2.016 -3.537,-2.067c-1.981,-0.052 -6.253,0.916 -8.837,1.772c-2.583,0.857 -3.683,-2.149 -1.749,-2.698" style="fill:#ffdecc;"/><rect x="45.527" y="173.578" width="4.004" height="14.148" style="fill:#62007a;"/><path d="M29.243,169.84l36.572,0c1.395,0 2.536,1.142 2.536,2.536c0,1.395 -1.141,2.536 -2.536,2.536l-36.572,0c-1.395,0 -2.536,-1.141 -2.536,-2.536c0,-1.394 1.141,-2.536 2.536,-2.536" style="fill:#ffd277;"/><path d="M25.162,136.226l6.35,36.017c0.243,1.374 -0.683,2.695 -2.056,2.938c-1.374,0.242 -2.696,-0.684 -2.939,-2.057l-6.35,-36.017c-0.242,-1.373 0.683,-2.695 2.057,-2.938c1.374,-0.242 2.696,0.684 2.938,2.057" style="fill:#ffd277;"/><rect x="46.461" y="187.726" width="2.136" height="9.61" style="fill:#ccc;"/><rect x="45.527" y="197.336" width="4.004" height="14.148" style="fill:#62007a;"/><rect x="29.276" y="209.691" width="37.736" height="2.244" style="fill:#62007a;"/><path d="M65.011,210.96l0.001,0c1.1,0 2,0.9 2,2l0,1.464c0,1.1 -0.9,2.001 -2,2.001l-0.001,0c-1.1,0 -2,-0.901 -2,-2.001l0,-1.464c0,-1.1 0.9,-2 2,-2" style="fill:#62007a;"/><path d="M47.529,210.96l0.001,0c1.099,0 2,0.9 2,2l0,1.464c0,1.1 -0.901,2.001 -2,2.001l-0.001,0c-1.1,0 -2.001,-0.901 -2.001,-2.001l0,-1.464c0,-1.1 0.901,-2 2.001,-2" style="fill:#62007a;"/><path d="M31.276,210.96l0.001,0c1.1,0 2,0.9 2,2l0,1.464c0,1.1 -0.9,2.001 -2,2.001l-0.001,0c-1.1,0 -2,-0.901 -2,-2.001l0,-1.464c0,-1.1 0.9,-2 2,-2" style="fill:#4d4d4d;"/><path d="M56.11,91.625c1.4,1.345 3.745,3.263 4.595,3.039c0.85,-0.222 0.949,0.642 -0.665,1.828c-1.615,1.187 -3.723,-0.822 -5.984,0.188c-2.26,1.01 -2.551,3.921 -3.378,6.518c-0.827,2.596 -1.779,8.01 -0.047,8.937c1.733,0.927 4.15,1.274 4.221,1.892c0.071,0.617 0.184,1.604 -2.056,0.611c-2.241,-0.994 -5.023,-0.932 -4.702,-5.057c0.32,-4.125 2.673,-9.638 1.156,-10.097c-1.517,-0.459 -3.359,0.091 -3.512,3.111c-0.154,3.02 -5.05,5.398 -6.698,5.212c0.931,-2.339 -0.365,-3.424 -0.692,-6.263c-0.512,-4.454 0.137,-8.891 3.067,-10.834c3.027,-2.008 10.368,-3.244 14.695,0.915" style="fill:#b84227;"/><path d="M91.513,211.391c-2.214,-3.654 -22.446,-32.24 -23.119,-40.206c-0.673,-7.966 3.447,-9.717 7.782,-7.955c3.564,1.449 19.171,37.318 22.333,43.947l-6.996,4.214Z" style="fill:#f4a900;"/><path d="M54.44,138.437c0.031,-3.615 20.412,-5.015 24.315,-5.013l1.141,5.53c-4.604,1.93 -25.523,7.187 -25.456,-0.517" style="fill:#016797;"/><path d="M70.129,107.681l8.213,-3.249l3.872,12.539l-6.326,2.505l-5.759,-11.795Z" style="fill:#e6e6e6;"/><path d="M78.669,104.301l-8.867,3.51l-0.353,-0.893l8.867,-3.51l0.353,0.893Z" style="fill:#fff;"/><path d="M69.811,106.774l8.141,-3.222l-1.185,-1.467l-7.095,2.808l0.139,1.881Z" style="fill:#e6e6e6;"/><path d="M79.066,106.777l2.018,6.534l-6.878,2.721l-3,-6.145l7.86,-3.11Z" style="fill:#d66c2b;"/><path d="M75.362,108.902c1.436,-0.568 3.06,0.135 3.628,1.571c0.568,1.436 -0.135,3.06 -1.57,3.628c-1.436,0.569 -3.061,-0.135 -3.629,-1.57c-0.568,-1.436 0.135,-3.061 1.571,-3.629" style="fill:#fff;"/><path d="M75.813,110.042c0.806,-0.319 1.719,0.076 2.038,0.882c0.319,0.806 -0.076,1.719 -0.882,2.037c-0.807,0.32 -1.719,-0.075 -2.039,-0.881c-0.318,-0.807 0.076,-1.719 0.883,-2.038" style="fill:#fff;"/><path d="M75.897,110.255c0.689,-0.272 1.468,0.065 1.74,0.754c0.273,0.688 -0.065,1.467 -0.753,1.739c-0.688,0.272 -1.467,-0.065 -1.739,-0.753c-0.273,-0.688 0.064,-1.467 0.752,-1.74" style="fill:#d66c2b;"/><path d="M78.76,106.369c-0.871,0.983 -1.766,1.18 -1.264,2.083c0.502,0.903 1.406,-0.09 1.406,-0.09c0,0 -1.248,1.098 -0.905,1.975c0.343,0.876 1.618,0.108 1.618,0.108c0,0 -0.581,1.148 -0.421,1.633c0.16,0.487 0.572,0.753 0.999,0.577c0.428,-0.176 2.085,-1.204 1.649,-2.014c-0.437,-0.81 -0.98,-0.983 -0.98,-0.983c0,0 0.81,-0.436 0.44,-1.644c-0.369,-1.207 -0.9,-0.969 -0.9,-0.969c0,0 -0.469,-2 -1.642,-0.676" style="fill:#ffdecc;"/><path d="M71.414,114.434c0.071,-1.552 -0.168,-5.232 0.89,-5.161c1.058,0.07 1.226,3.398 1.156,4.668c-0.071,1.269 -1.623,3.032 -2.046,0.493" style="fill:#ffdecc;"/><path d="M74.175,140.352l29.593,0l0,1.075c0,0.59 -0.483,1.073 -1.074,1.073l-27.445,0c-0.59,0 -1.074,-0.483 -1.074,-1.073l0,-1.075Z" style="fill:#ccc;"/><rect x="74.175" y="140.352" width="29.592" height="0.67" style="fill:#fff;"/><path d="M110.884,111.628l0.393,0.097c0.574,0.142 0.926,0.728 0.784,1.301l-6.6,26.639c-0.142,0.574 -0.727,0.927 -1.301,0.784l-0.392,-0.097l7.116,-28.724Z" style="fill:#ccc;"/><path d="M111.277,111.725l-7.116,28.725l-0.393,-0.098l7.117,-28.724l0.392,0.097Z" style="fill:#fff;"/><rect x="91.444" y="141.504" width="7.217" height="0.373" style="fill:#999;"/><rect x="99.794" y="141.504" width="1.553" height="0.373" style="fill:#999;"/><rect x="89.05" y="141.504" width="1.554" height="0.373" style="fill:#999;"/><path d="M248.839,97.926c-0.031,2.081 0.513,4.378 1.076,5.374c0.564,0.996 0.146,3.15 0.031,4.153c-0.115,1.003 0.03,1.95 0.968,1.889c2.096,-0.137 1.728,5.968 4.107,4.79c1.526,-0.755 4.354,-1.785 5.38,-0.397c1.026,1.388 3.979,8.189 3.773,9.221c0,0 6.535,-8.29 5.551,-10.775c-0.985,-2.484 -1.691,-7.392 -1.033,-9.433c0.658,-2.041 1.318,-10.386 -3.799,-12.63c-5.068,-2.222 -15.928,-0.561 -16.054,7.808" style="fill:#f4c0a6;"/><path d="M269.148,109.736c15.148,19.22 11.823,39.082 8.304,49.429c-3.52,10.347 -16.491,6.542 -15.016,-5.748c1.475,-12.29 -1.294,-23.037 -1.343,-28.727c-0.018,-2.088 1.701,-4.876 1.089,-7.114c3.305,-1.49 5.874,-5.308 6.966,-7.84" style="fill:#ff6e7d;"/><path d="M236.505,207.382c1.747,6.063 -0.374,8.887 -2.71,8.901l-13.944,0.083c-0.917,0.006 -2.255,-2.856 0.527,-3.601c2.782,-0.744 9.608,-2.86 10.941,-6.241c1.333,-3.381 5.895,-3.05 5.186,0.858" style="fill:#fff;"/><path d="M237.153,209.277c0.575,-4.082 7.488,-34.687 4.754,-41.664c-2.734,-6.978 -7.692,-4.429 -10.974,-0.821c-1.96,2.256 -2.064,35.185 -2.288,42.195l8.508,0.29Z" style="fill:#73a2bf;"/><path d="M278.299,156.168c-0.706,4.771 -3.003,11.577 -11.647,12.99c-8.642,1.413 -23.713,2.038 -26.936,2.439c-3.223,0.4 -13.126,-5.982 -6.673,-9.228c6.455,-3.247 26.946,-8.411 29.061,-9.205c2.113,-0.794 0.116,-0.043 0.177,-0.064l16.018,3.068Z" style="fill:#7fb0cf;"/><path d="M235.323,130.303c-3.753,-3.305 -8.073,-5.995 -10.922,-6.236c-2.849,-0.241 -6.46,-0.002 -5.59,1.027c0.869,1.031 1.667,0.289 3.859,0.651c2.191,0.362 -0.067,0.097 -1.329,1.094c-1.262,0.997 -1.976,2.659 -0.355,1.766c1.621,-0.894 2.12,-1.41 4.013,-0.824c1.893,0.587 5.629,2.875 7.801,4.516c2.171,1.64 4.178,-0.853 2.523,-1.994" style="fill:#ffdecc;"/><path d="M253.775,138.926c1.131,-3.434 -17.722,-11.301 -21.42,-12.552l-2.855,4.872c3.74,3.305 21.865,14.998 24.275,7.68" style="fill:#d92e3f;"/><path d="M269.016,118.113c-2.845,-3.166 -11.177,5.818 -15.923,10.87c-4.747,5.053 -9.646,9.647 -7.196,12.096c2.449,2.45 7.961,0 12.095,-3.981c4.134,-3.981 17.737,-11.514 11.024,-18.985" style="fill:#f04152;"/><path d="M233.26,136.192c-4.615,-1.925 -9.57,-3.087 -12.346,-2.401c-2.775,0.687 -6.118,2.072 -4.964,2.769c1.153,0.696 1.672,-0.263 3.864,-0.623c2.192,-0.361 -0.033,0.113 -0.907,1.463c-0.875,1.349 -1.018,3.151 0.23,1.785c1.248,-1.365 1.556,-2.016 3.537,-2.067c1.981,-0.052 6.253,0.916 8.837,1.772c2.583,0.857 3.682,-2.149 1.749,-2.698" style="fill:#ffdecc;"/><rect x="258.413" y="173.578" width="4.004" height="14.148" style="fill:#62007a;"/><path d="M282.782,136.226l-6.35,36.017c-0.243,1.374 0.682,2.695 2.056,2.938c1.374,0.242 2.696,-0.684 2.938,-2.057l6.351,-36.017c0.242,-1.373 -0.683,-2.695 -2.057,-2.938c-1.374,-0.242 -2.695,0.684 -2.938,2.057" style="fill:#ffd277;"/><rect x="259.347" y="187.726" width="2.136" height="9.61" style="fill:#ccc;"/><rect x="258.413" y="197.336" width="4.004" height="14.148" style="fill:#62007a;"/><rect x="240.932" y="209.691" width="37.736" height="2.244" style="fill:#62007a;"/><path d="M242.933,210.96l-0.002,0c-1.099,0 -1.999,0.9 -1.999,2l0,1.464c0,1.1 0.9,2.001 1.999,2.001l0.002,0c1.099,0 2,-0.901 2,-2.001l0,-1.464c0,-1.1 -0.901,-2 -2,-2" style="fill:#62007a;"/><path d="M260.416,210.96l-0.002,0c-1.099,0 -1.999,0.9 -1.999,2l0,1.464c0,1.1 0.9,2.001 1.999,2.001l0.002,0c1.099,0 1.999,-0.901 1.999,-2.001l0,-1.464c0,-1.1 -0.9,-2 -1.999,-2" style="fill:#4d4d4d;"/><path d="M276.668,210.96l-0.002,0c-1.099,0 -1.999,0.9 -1.999,2l0,1.464c0,1.1 0.9,2.001 1.999,2.001l0.002,0c1.099,0 1.999,-0.901 1.999,-2.001l0,-1.464c0,-1.1 -0.9,-2 -1.999,-2" style="fill:#4d4d4d;"/><path d="M257.374,104.269c0.366,1.528 1.553,1.125 1.273,-0.113c-0.24,-1.059 -0.079,-0.463 -0.279,-1.382c-1.205,-5.523 3.317,-4.66 3.236,-0.303c-0.069,3.76 5.701,5.606 7.348,5.42c-0.465,-2.495 0.159,-3.631 0.486,-6.471c0.512,-4.454 0.375,-8.976 -2.554,-10.919c-1.787,-1.185 -5.59,-1.996 -8.877,-1.712c-3.905,0.336 -9.689,2.5 -10.503,9.524c4.936,5.744 7.6,4.253 9.87,5.956" style="fill:#996250;"/><path d="M263.677,208.22c0.748,2.429 1.901,8.249 -1.658,8.275l-15.205,0.114c-1.292,-0.095 -1.535,-2.994 0.448,-3.739c1.981,-0.746 9.148,-1.089 9.91,-5.449c0.763,-4.359 5.574,-2.223 6.505,0.799" style="fill:#fff;"/><path d="M263.187,205.359c-1.976,-3.788 -15.921,-35.913 -22.382,-40.62c-6.462,-4.708 -10.097,-2.093 -10.839,2.527c-0.61,3.799 21.961,35.747 25.989,41.889l7.232,-3.796Z" style="fill:#7fb0cf;"/><path d="M253.504,138.437c-0.032,-3.615 -20.411,-5.015 -24.316,-5.013l-1.139,5.53c4.602,1.93 25.521,7.187 25.455,-0.517" style="fill:#f04152;"/><path d="M233.768,140.352l-29.592,0l0,1.075c0,0.59 0.483,1.073 1.074,1.073l27.444,0c0.591,0 1.074,-0.483 1.074,-1.073l0,-1.075Z" style="fill:#ccc;"/><rect x="204.176" y="140.352" width="29.592" height="0.67" style="fill:#fff;"/><rect x="209.282" y="141.504" width="7.218" height="0.373" style="fill:#999;"/><rect x="217.341" y="141.504" width="1.553" height="0.373" style="fill:#999;"/><path d="M278.7,169.84l-36.572,0c-1.394,0 -2.535,1.142 -2.535,2.536c0,1.395 1.141,2.536 2.535,2.536l36.572,0c1.395,0 2.537,-1.141 2.537,-2.536c0,-1.394 -1.142,-2.536 -2.537,-2.536" style="fill:#ffd277;"/><rect x="146.088" y="101.257" width="6.503" height="15.501" style="fill:#efb095;"/><path d="M142.397,93.876c-0.203,3.268 -0.71,3.163 -0.71,3.163c0,0 -1.823,-0.105 -1.418,1.793c0.405,1.897 1.925,2.109 1.925,2.109c0,0 0.353,1.563 1.317,2.846c0.964,1.285 3.344,4.64 5.978,4.429c0.01,-0.001 0.021,-0.005 0.031,-0.006c0.01,0.001 0.02,0.005 0.031,0.006c2.634,0.211 4.91,-2.902 5.978,-4.429c1.067,-1.526 1.317,-2.846 1.317,-2.846c0,0 1.519,-0.212 1.925,-2.109c0.405,-1.898 -1.419,-1.793 -1.419,-1.793c0,0 -0.506,0.105 -0.709,-3.163c2.128,-6.116 -5.026,-5.659 -6.889,-5.712c-1.865,-0.054 -0.158,0.011 -0.234,0.031c-0.076,-0.02 1.63,-0.085 -0.233,-0.031c-1.864,0.053 -9.018,-0.404 -6.89,5.712" style="fill:#e0bcaa;"/><path d="M157.285,105.2c-1.752,3.29 7.047,-8.315 -0.533,-16.014c-4.525,-4.598 -12.024,-4.276 -14.956,0.828c1.435,2.173 4.504,4.113 8.101,4.038c6.114,-0.128 -0.474,3.718 4.506,4.374c3.627,0.478 2.92,1.136 1.146,3.119c-1.241,1.388 -0.89,3.197 1.736,3.655" style="fill:#58453f;"/><path d="M145.197,90.118c-0.683,2.803 0.451,4.985 -1.861,5.26c-3.008,0.356 -1.576,2.246 -1.808,4.567c-1.661,-2.07 -2.197,-11.267 3.669,-9.827" style="fill:#58453f;"/><path d="M135.705,146.946l0,4.264l-0.972,0c0.022,-1.945 0.384,-3.159 0.972,-4.264m0,-23.342l-5.189,7.107l5.189,4.593l0,5.705l-10.842,-5.052l-0.001,-0.001c-2.093,-0.618 -3.637,-4.398 -1.616,-7.165l12.063,-16.517c0.101,-0.14 0.234,-0.26 0.396,-0.365l0,11.695Zm2.986,-4.087l-2.986,4.087l0,-11.695c1.323,-0.857 4.572,-0.662 8.432,-0.99c1.728,-0.146 4.273,1.558 5.203,3.995c1.094,-2.87 3.713,-4.004 5.226,-3.995c4.354,0.028 7.698,0.012 8.679,1.355l0.388,0.532l0,11.874l-3.231,-4.425c-0.873,5.589 -1.709,13.084 -0.736,18.087l3.967,-3.617l0,5.917l-2.549,1.188c-0.118,0.055 -0.24,0.077 -0.358,0.113c1.067,2.884 2.223,4.511 2.907,6.249l0,3.018l-27.928,0l0,-4.264c0.729,-1.368 1.804,-2.567 3.009,-4.774c-0.396,-0.086 -0.824,-0.146 -1.245,-0.342l-1.764,-0.821l0,-5.705l4.422,3.913c1.834,-5.249 -0.006,-13.266 -1.436,-19.7m24.942,21.125l0,-5.917l4.405,-4.014l-4.405,-6.031l0,-11.874l11.674,15.985c2.021,2.767 0.476,6.547 -1.616,7.165l0,0.001l-10.058,4.685Zm0,10.568l0,-3.018c0.358,0.911 0.587,1.851 0.606,3.018l-0.606,0Z" style="fill:#7fb0cf;"/><path d="M151.022,111.709l-1.682,3.204l5.54,-4.19l-1.17,-1.287l-2.688,2.273Z" style="fill:#e3687f;"/><path d="M147.657,111.709l1.683,3.204l-5.541,-4.19l1.17,-1.287l2.688,2.273Z" style="fill:#e3687f;"/><path d="M153.71,109.436l1.17,1.287l-1.119,4.841l-2.739,-3.855l2.688,-2.273Zm-8.741,0l-1.169,1.287l1.118,4.841l2.739,-3.855l-2.688,-2.273Z" style="fill:#fff;"/><path d="M133.837,116.297l31.029,0c2.765,0 3.86,0.74 3.34,3.621l-3.271,18.106c-0.247,1.367 -1.783,2.328 -3.263,2.328l-24.985,0c-1.821,0 -2.986,-0.559 -3.268,-2.306l-2.921,-18.128c-0.466,-2.891 0.574,-3.621 3.339,-3.621" style="fill:#fff;"/><path d="M161.661,144.165l-24.152,0c-1.587,2.401 -2.737,3.533 -2.776,7.045l29.505,0c-0.043,-2.752 -1.255,-4.243 -2.577,-7.045" style="fill:#f04152;"/><rect x="61" y="142.501" width="192.371" height="4.081" style="fill:#ffd277;"/><path d="M164.148,140.352l-29.592,0l0,1.075c0,0.59 0.483,1.073 1.074,1.073l27.443,0c0.591,0 1.075,-0.483 1.075,-1.073l0,-1.075Z" style="fill:#ccc;"/><rect x="134.556" y="140.352" width="29.592" height="0.67" style="fill:#fff;"/><rect x="147.358" y="160.974" width="4.004" height="14.148" style="fill:#4d4d4d;"/><path d="M131.075,157.237l36.572,0c1.395,0 2.535,1.141 2.535,2.536c0,1.394 -1.14,2.535 -2.535,2.535l-36.572,0c-1.395,0 -2.536,-1.141 -2.536,-2.535c0,-1.395 1.141,-2.536 2.536,-2.536" style="fill:#ffd277;"/><rect x="148.292" y="175.122" width="2.136" height="9.61" style="fill:#ccc;"/><rect x="147.358" y="184.733" width="4.004" height="14.148" style="fill:#4d4d4d;"/><rect x="131.108" y="197.087" width="37.736" height="2.244" style="fill:#62007a;"/><path d="M166.842,198.356l0.002,0c1.099,0 1.999,0.9 1.999,2.001l0,1.463c0,1.1 -0.9,2.001 -1.999,2.001l-0.002,0c-1.099,0 -2,-0.901 -2,-2.001l0,-1.463c0,-1.101 0.901,-2.001 2,-2.001" style="fill:#62007a;"/><path d="M149.36,198.356l0.001,0c1.1,0 2,0.9 2,2.001l0,1.463c0,1.1 -0.9,2.001 -2,2.001l-0.001,0c-1.099,0 -2,-0.901 -2,-2.001l0,-1.463c0,-1.101 0.901,-2.001 2,-2.001" style="fill:#4d4d4d;"/><path d="M133.108,198.356l0.001,0c1.099,0 2,0.9 2,2.001l0,1.463c0,1.1 -0.901,2.001 -2,2.001l-0.001,0c-1.1,0 -2,-0.901 -2,-2.001l0,-1.463c0,-1.101 0.9,-2.001 2,-2.001" style="fill:#62007a;"/><path d="M163.967,149.203c0.465,1.155 0.061,-0.767 0.061,3.144c0,3.911 -6.567,11.845 -14.667,11.845c-8.101,0 -14.668,-5.303 -14.668,-11.845c0,-1.28 0.253,-2.512 0.718,-3.666l28.556,0.522Z" style="fill:#f04152;"/><rect x="146.739" y="167.84" width="4.908" height="31.039" style="fill:#456673;"/><path d="M152.218,199.014c0.729,3.711 3.279,8.406 2.19,12.028c-1.114,3.706 -3.916,3.7 -5.646,0.949c-1.832,-2.911 -0.651,-8.891 -0.486,-12.689c0.141,-3.241 -5.751,-24.305 -6.857,-33.995c-1.069,-9.371 9.413,-11.294 10.411,-1.158c1.174,11.929 -1.358,25.979 0.388,34.865" style="fill:#ffdecc;"/><path d="M153.776,204.483c0.82,2.263 1.337,4.554 0.768,6.54c-1.159,4.048 -4.187,3.817 -5.917,1.067c-0.823,-1.307 -1.077,-2.996 -0.925,-5.403c0.613,2.648 1.66,4.254 3.445,3.994c2.246,-0.328 2.97,-2.895 2.629,-6.198" style="fill:#7fb0cf;"/><path d="M159.479,193.114c1.219,3.58 4.376,7.889 3.783,11.625c-0.607,3.822 -3.384,4.191 -5.468,1.698c-2.206,-2.639 -1.837,-8.723 -2.183,-12.508c-0.296,-3.232 -8.959,-23.316 -11.355,-32.769c-2.316,-9.144 7.813,-12.454 10.161,-2.544c2.764,11.663 2.14,25.926 5.062,34.498" style="fill:#ffdecc;"/><path d="M161.756,198.324c1.116,2.132 1.936,4.334 1.638,6.378c-0.606,4.168 -3.637,4.344 -5.721,1.851c-0.99,-1.185 -1.469,-2.824 -1.64,-5.23c0.962,2.542 2.215,3.993 3.949,3.496c2.182,-0.627 2.556,-3.267 1.774,-6.495" style="fill:#7fb0cf;"/><path d="M147.235,197.79l5.652,-0.551c-1.166,-8.909 0.044,-21.904 -1.058,-33.09c-0.848,-8.62 -18.137,-7.149 -12.965,-3.562c2.225,1.542 1.984,3.628 2.144,5.028c0.987,8.655 5.312,26.175 6.227,32.175" style="fill:#f04152;"/><path d="M152.834,187.425c-2.546,-1.943 -8.377,-14.82 -9.381,-22.398c-0.22,-1.66 -2.022,-2.357 -3.897,-3.87c1.927,1.183 4.195,0.536 6.654,3.91c4.478,6.144 7.919,17.541 6.624,22.358" style="fill:#d42638;"/><path d="M154.52,193.483l5.42,-1.723c-2.512,-8.659 -2.776,-22.707 -5.42,-33.864c-2.349,-9.91 -13.095,-5.983 -10.778,3.161c2.237,8.828 9.528,27.438 10.778,32.426" style="fill:#f04152;"/><path d="M153.689,156.429c1.11,1.824 1.743,4.023 1.807,6.259c-0.107,-2.796 -6.421,-12.523 -12.119,-16.106l12.034,0c-2.139,0.334 -4.406,1.174 -6.189,3.457c1.698,1.905 3.317,4.501 4.467,6.39" style="fill:#d42638;"/><path d="M143.17,99.025c0.765,-0.123 1.644,-0.148 2.509,-0.11l0,-0.187c-0.662,-0.031 -1.331,-0.025 -1.958,0.031c-0.251,0.023 -0.892,0.068 -1.127,0.108c-0.253,0.044 -0.358,0.243 -0.359,0.503c-0.001,0.15 0.255,0.25 0.264,0.404c0.024,0.457 0.18,0.924 0.336,1.295c0.099,0.237 0.214,0.423 0.467,0.467c0.838,0.146 1.62,0.207 2.377,0.204l0,-0.19c-0.707,0.003 -1.436,-0.05 -2.218,-0.178c-0.236,-0.039 -0.343,-0.202 -0.436,-0.409c-0.194,-0.433 -0.388,-1.016 -0.291,-1.53c0.041,-0.221 0.199,-0.37 0.436,-0.408m2.509,-0.11c0.909,0.04 1.803,0.148 2.534,0.284c0.235,0.043 0.443,0.183 0.436,0.408c-0.015,0.477 -0.132,0.89 -0.318,1.356c-0.084,0.211 -0.199,0.374 -0.435,0.409c-0.736,0.109 -1.463,0.176 -2.217,0.178l0,0.19c0.808,-0.003 1.587,-0.08 2.375,-0.204c0.254,-0.04 0.377,-0.227 0.467,-0.467c0.137,-0.366 0.239,-0.704 0.295,-1.055c0.182,-0.37 1.174,-0.568 1.408,0.073c0.009,0.024 0.016,0.046 0.024,0.065c0.059,0.302 0.151,0.599 0.27,0.917c0.09,0.24 0.214,0.427 0.468,0.467c0.787,0.124 1.567,0.201 2.375,0.204l0,-0.19c-0.754,-0.002 -1.482,-0.069 -2.217,-0.178c-0.236,-0.035 -0.351,-0.198 -0.435,-0.409c-0.187,-0.466 -0.304,-0.879 -0.318,-1.356c-0.008,-0.225 0.2,-0.365 0.435,-0.408c0.732,-0.136 1.626,-0.244 2.535,-0.284l0,-0.187c-0.765,0.035 -1.521,0.119 -2.19,0.229l-0.011,0.002l-0.007,0.001c-0.379,0.062 -1.327,0.228 -1.68,0.228c-0.283,0 -0.603,-0.054 -1.035,-0.126c-0.014,-0.004 -0.028,-0.007 -0.043,-0.01c-0.783,-0.155 -1.742,-0.279 -2.716,-0.324l0,0.187Zm7.682,2.825l0,-0.19c0.706,0.003 1.436,-0.05 2.218,-0.178c0.236,-0.039 0.343,-0.202 0.435,-0.409c0.195,-0.433 0.389,-1.016 0.292,-1.53c-0.041,-0.221 -0.2,-0.37 -0.436,-0.408c-0.764,-0.123 -1.644,-0.148 -2.509,-0.11l0,-0.187c0.662,-0.031 1.331,-0.025 1.957,0.031c0.252,0.023 0.893,0.068 1.127,0.108c0.253,0.044 0.358,0.243 0.359,0.503c0.001,0.15 -0.255,0.25 -0.263,0.404c-0.025,0.457 -0.18,0.924 -0.336,1.295c-0.099,0.237 -0.214,0.423 -0.467,0.467c-0.838,0.146 -1.62,0.207 -2.377,0.204" style="fill:#397ba4;"/><path d="M142.594,98.868c0.235,-0.041 0.876,-0.086 1.127,-0.109c1.55,-0.14 3.358,0.033 4.674,0.293c0.014,0.003 0.029,0.006 0.043,0.01c0.433,0.073 0.752,0.125 1.035,0.125c0.353,0 1.301,-0.165 1.681,-0.227l0.006,-0.001l0.011,-0.002c1.247,-0.204 2.796,-0.32 4.148,-0.198c0.251,0.023 0.891,0.068 1.127,0.109c0.252,0.043 0.357,0.243 0.359,0.503c0,0.149 -0.255,0.249 -0.264,0.402c-0.024,0.458 -0.18,0.925 -0.336,1.296c-0.1,0.236 -0.214,0.423 -0.467,0.467c-1.734,0.302 -3.227,0.241 -4.752,0c-0.254,-0.04 -0.378,-0.227 -0.468,-0.467c-0.119,-0.318 -0.211,-0.614 -0.27,-0.917c-0.007,-0.019 -0.016,-0.04 -0.024,-0.064c-0.234,-0.642 -1.227,-0.444 -1.408,-0.075c-0.056,0.352 -0.158,0.69 -0.295,1.056c-0.09,0.24 -0.213,0.427 -0.467,0.467c-1.525,0.241 -3.019,0.302 -4.752,0c-0.253,-0.044 -0.368,-0.231 -0.467,-0.467c-0.156,-0.371 -0.312,-0.838 -0.336,-1.296c-0.009,-0.153 -0.265,-0.253 -0.264,-0.402c0.001,-0.26 0.106,-0.46 0.359,-0.503Zm13.276,0.157c-1.569,-0.252 -3.617,-0.091 -5.043,0.174c-0.236,0.043 -0.443,0.184 -0.436,0.408c0.014,0.477 0.131,0.89 0.318,1.356c0.084,0.211 0.199,0.374 0.435,0.409c1.424,0.21 2.817,0.264 4.435,0c0.236,-0.038 0.343,-0.202 0.435,-0.409c0.195,-0.434 0.389,-1.016 0.292,-1.53c-0.042,-0.221 -0.2,-0.37 -0.436,-0.408Zm-12.7,0c1.568,-0.252 3.616,-0.091 5.044,0.174c0.234,0.043 0.442,0.184 0.435,0.408c-0.015,0.477 -0.132,0.89 -0.318,1.356c-0.084,0.211 -0.199,0.374 -0.436,0.409c-1.423,0.21 -2.817,0.264 -4.434,0c-0.237,-0.038 -0.343,-0.202 -0.436,-0.409c-0.194,-0.434 -0.388,-1.016 -0.291,-1.53c0.041,-0.221 0.199,-0.37 0.436,-0.408Z" style="fill:none;stroke:#397ba4;stroke-width:0.11px;"/><path d="M29.644,156.168c0.221,1.759 0.441,2.637 0.762,3.47c3.069,0.167 11.804,-0.545 16.978,-6.469l-0.84,-0.288c-7.377,2.348 -13.496,3.804 -16.9,3.287" style="fill:#fff;"/><path d="M197.07,111.628l-0.393,0.097c-0.573,0.142 -0.926,0.728 -0.784,1.301l6.6,26.639c0.143,0.574 0.727,0.927 1.301,0.784l0.392,-0.097l-7.116,-28.724Z" style="fill:#ccc;"/><path d="M197.07,111.628l7.116,28.724l-0.393,0.098l-7.116,-28.725l0.393,-0.097Z" style="fill:#fff;"/><path d="M170.52,132.902l3.154,-0.462l3.155,0.462l0,9.091l-6.309,0l0,-9.091Z" style="fill:#f04152;"/><path d="M170.52,132.902l6.309,0l-0.358,-0.924l-5.594,0l-0.357,0.924Z" style="fill:#f04152;"/><rect x="170.877" y="131.656" width="5.594" height="0.323" style="fill:#fff;"/><path d="M171.005,142.501l5.339,0l0.485,-0.508l-6.309,0l0.485,0.508Z" style="fill:#fff;"/><path d="M171.891,135.972c-0.052,-0.016 -0.106,-0.028 -0.16,-0.035c-0.114,-0.014 -0.228,-0.003 -0.342,0.032c-0.112,0.036 -0.22,0.099 -0.325,0.191c-0.127,0.113 -0.223,0.246 -0.285,0.395c-0.063,0.148 -0.098,0.31 -0.102,0.483c-0.007,0.174 0.011,0.355 0.053,0.544c0.043,0.188 0.106,0.379 0.19,0.571c0.083,0.194 0.184,0.383 0.3,0.572c0.115,0.187 0.243,0.368 0.385,0.54c0.092,0.112 0.187,0.22 0.286,0.322l0,-0.717c-0.096,-0.132 -0.189,-0.267 -0.276,-0.405c-0.106,-0.172 -0.202,-0.343 -0.284,-0.515c-0.083,-0.171 -0.151,-0.338 -0.203,-0.501c-0.051,-0.162 -0.084,-0.315 -0.096,-0.458c-0.014,-0.144 -0.004,-0.272 0.028,-0.387c0.032,-0.114 0.09,-0.21 0.175,-0.287c0.069,-0.059 0.145,-0.09 0.231,-0.092c0.085,-0.002 0.176,0.02 0.27,0.066c0.052,0.025 0.104,0.057 0.155,0.095l0,-0.414Zm-1.371,4.434c0.064,0.016 0.131,0.028 0.199,0.036c0.158,0.019 0.32,0.013 0.489,-0.018c0.169,-0.031 0.339,-0.089 0.511,-0.176c0.058,-0.029 0.116,-0.061 0.172,-0.097l0,-0.279c-0.111,0.08 -0.223,0.144 -0.335,0.19c-0.167,0.069 -0.33,0.104 -0.49,0.106c-0.158,0.002 -0.31,-0.026 -0.453,-0.083c-0.032,-0.013 -0.062,-0.027 -0.093,-0.042l0,0.363Zm3.383,-4.085l0,0.345c-0.003,0.005 -0.007,0.009 -0.01,0.012c-0.019,0.028 -0.026,0.064 -0.02,0.109c0.004,0.034 0.013,0.071 0.03,0.11l0,0.815l-0.023,-0.031c-0.086,-0.112 -0.162,-0.231 -0.228,-0.356l0.156,-0.083c-0.056,-0.069 -0.103,-0.142 -0.139,-0.216c-0.037,-0.076 -0.059,-0.15 -0.068,-0.224c-0.01,-0.074 -0.003,-0.145 0.019,-0.212c0.023,-0.068 0.066,-0.129 0.128,-0.185c0.046,-0.041 0.099,-0.069 0.155,-0.084m0,-2.088l0,0.887c-0.107,-0.208 -0.17,-0.379 -0.188,-0.513c-0.021,-0.143 0.004,-0.244 0.072,-0.304c0.038,-0.033 0.077,-0.056 0.116,-0.07m0,4.072l0,0.318c-0.013,-0.008 -0.027,-0.014 -0.04,-0.021c-0.06,-0.027 -0.12,-0.038 -0.177,-0.035c-0.059,0.004 -0.111,0.027 -0.159,0.069c-0.063,0.058 -0.099,0.127 -0.109,0.208c-0.009,0.082 0.004,0.171 0.038,0.266c0.035,0.094 0.088,0.191 0.159,0.289c0.07,0.097 0.153,0.191 0.25,0.28l0.038,0.035l0,0.424c-0.018,-0.013 -0.036,-0.027 -0.054,-0.041c-0.046,-0.036 -0.09,-0.074 -0.133,-0.114c-0.102,-0.093 -0.192,-0.194 -0.27,-0.301c-0.079,-0.107 -0.142,-0.216 -0.19,-0.328c-0.048,-0.112 -0.077,-0.222 -0.089,-0.331c-0.01,-0.108 0.002,-0.21 0.036,-0.308c0.035,-0.097 0.094,-0.184 0.181,-0.262c0.075,-0.065 0.153,-0.11 0.235,-0.133c0.083,-0.025 0.167,-0.031 0.251,-0.02l0.033,0.005Zm-2.012,1.846c0.113,-0.071 0.225,-0.155 0.336,-0.252c0.17,0.143 0.342,0.263 0.518,0.362c0.177,0.098 0.351,0.169 0.523,0.213c0.174,0.045 0.341,0.055 0.501,0.033c0.046,-0.006 0.09,-0.015 0.134,-0.028l0,-0.247c-0.074,0.021 -0.152,0.029 -0.233,0.021c-0.115,-0.01 -0.236,-0.044 -0.36,-0.102c-0.126,-0.057 -0.254,-0.134 -0.386,-0.228c-0.131,-0.096 -0.263,-0.205 -0.396,-0.327c0.162,-0.195 0.29,-0.397 0.381,-0.604c0.091,-0.208 0.151,-0.418 0.18,-0.628c0.029,-0.211 0.033,-0.416 0.009,-0.618c-0.024,-0.202 -0.068,-0.395 -0.133,-0.577c-0.066,-0.183 -0.149,-0.35 -0.247,-0.502c-0.098,-0.153 -0.207,-0.285 -0.328,-0.396c-0.102,-0.093 -0.207,-0.17 -0.319,-0.226c-0.06,-0.03 -0.119,-0.055 -0.18,-0.073l0,0.414c0.044,0.031 0.087,0.067 0.13,0.107c0.103,0.094 0.2,0.208 0.292,0.34c0.091,0.132 0.172,0.279 0.241,0.439c0.07,0.161 0.122,0.331 0.159,0.509c0.037,0.179 0.05,0.362 0.042,0.549c-0.009,0.186 -0.046,0.371 -0.109,0.557c-0.065,0.184 -0.161,0.362 -0.293,0.535c-0.135,-0.142 -0.264,-0.295 -0.389,-0.456c-0.024,-0.032 -0.048,-0.064 -0.073,-0.096l0,0.717c0.054,0.054 0.107,0.106 0.162,0.157c-0.054,0.047 -0.108,0.089 -0.162,0.128l0,0.279Zm2.614,-2.684c-0.044,-0.013 -0.089,-0.032 -0.133,-0.057c-0.07,-0.039 -0.137,-0.088 -0.198,-0.146c-0.055,-0.051 -0.105,-0.105 -0.148,-0.162c-0.043,-0.056 -0.078,-0.111 -0.105,-0.166c-0.006,-0.013 -0.013,-0.026 -0.018,-0.039l0,0.815c0.079,0.099 0.162,0.19 0.25,0.27c0.077,0.073 0.158,0.134 0.238,0.184c0.039,0.023 0.076,0.044 0.114,0.061l0,-0.386c-0.049,-0.033 -0.098,-0.072 -0.149,-0.119c-0.022,-0.02 -0.045,-0.043 -0.069,-0.068c-0.023,-0.024 -0.046,-0.05 -0.068,-0.077c0.072,0.037 0.144,0.064 0.217,0.084c0.023,0.007 0.046,0.011 0.069,0.016l0,-0.21Zm0,-0.987l0,0.502l-0.004,-0.005c-0.059,-0.074 -0.119,-0.139 -0.18,-0.196c-0.052,-0.047 -0.103,-0.086 -0.152,-0.115c-0.05,-0.03 -0.096,-0.046 -0.14,-0.049c-0.043,-0.004 -0.081,0.008 -0.114,0.036c-0.004,0.003 -0.007,0.007 -0.011,0.013l-0.001,0l0,-0.345c0.015,-0.005 0.029,-0.008 0.045,-0.01c0.074,-0.012 0.153,-0.007 0.236,0.015c0.082,0.022 0.165,0.058 0.25,0.108c0.023,0.015 0.048,0.03 0.071,0.046m0,-1.911l0,0.357c-0.032,-0.049 -0.064,-0.096 -0.097,-0.142c-0.074,-0.102 -0.152,-0.193 -0.236,-0.271c-0.024,-0.022 -0.047,-0.036 -0.067,-0.042c-0.019,-0.006 -0.034,-0.005 -0.042,0.003c-0.016,0.015 -0.015,0.049 0.002,0.103c0.016,0.053 0.046,0.122 0.089,0.205c0.042,0.083 0.096,0.178 0.159,0.282c0.058,0.094 0.122,0.194 0.192,0.3l0,0.667l-0.051,-0.067c-0.232,-0.31 -0.41,-0.578 -0.529,-0.804l-0.022,-0.04l0,-0.887c0.023,-0.008 0.046,-0.013 0.07,-0.014c0.062,-0.005 0.124,0.009 0.186,0.041c0.062,0.032 0.122,0.075 0.18,0.129c0.051,0.047 0.1,0.099 0.145,0.154l0.021,0.026Zm-0.602,5.91c0.11,-0.032 0.215,-0.083 0.315,-0.154c0.093,0.046 0.189,0.082 0.287,0.109l0,-0.366l-0.019,-0.006l0.019,-0.025l0,-1.318c-0.047,-0.066 -0.1,-0.125 -0.158,-0.179c-0.071,-0.066 -0.148,-0.119 -0.229,-0.161c-0.07,-0.036 -0.141,-0.06 -0.215,-0.074l0,0.318c0.046,0.026 0.091,0.059 0.134,0.099c0.059,0.054 0.114,0.118 0.163,0.192c0.048,0.074 0.089,0.154 0.122,0.241c0.034,0.087 0.054,0.177 0.064,0.269c0.01,0.093 0.006,0.185 -0.014,0.276c-0.019,0.091 -0.057,0.178 -0.113,0.26c-0.072,-0.038 -0.141,-0.082 -0.208,-0.129c-0.051,-0.037 -0.101,-0.077 -0.148,-0.117l0,0.424c0.029,0.021 0.058,0.041 0.088,0.061c-0.028,0.013 -0.058,0.024 -0.088,0.033l0,0.247Zm2.373,-5.924l0,0.639c-0.033,-0.038 -0.067,-0.074 -0.101,-0.105c-0.043,-0.039 -0.083,-0.07 -0.124,-0.093c-0.039,-0.023 -0.075,-0.036 -0.11,-0.039c-0.034,-0.002 -0.064,0.008 -0.09,0.029c-0.024,0.023 -0.034,0.059 -0.029,0.11c0.005,0.049 0.021,0.109 0.047,0.178c0.027,0.068 0.062,0.141 0.104,0.219c0.043,0.077 0.091,0.154 0.144,0.231c0.052,0.077 0.104,0.148 0.159,0.215l0,0.549c-0.032,-0.024 -0.063,-0.051 -0.095,-0.081c-0.01,-0.01 -0.021,-0.019 -0.03,-0.029c0.021,0.054 0.041,0.105 0.058,0.154c0.033,0.097 0.055,0.184 0.067,0.262l0,0.218c-0.016,0.079 -0.054,0.145 -0.113,0.198c-0.07,0.061 -0.149,0.091 -0.235,0.09c-0.086,-0.003 -0.182,-0.033 -0.284,-0.092c-0.103,-0.058 -0.214,-0.142 -0.333,-0.252c-0.017,-0.016 -0.035,-0.033 -0.052,-0.05c0.01,0.081 0.009,0.16 -0.003,0.236c-0.015,0.08 -0.04,0.154 -0.077,0.222c0.067,0.168 0.09,0.323 0.072,0.464c-0.019,0.141 -0.084,0.262 -0.195,0.362c-0.06,0.053 -0.127,0.086 -0.198,0.098c-0.073,0.013 -0.148,0.008 -0.226,-0.014c-0.043,-0.012 -0.084,-0.027 -0.127,-0.047l0,-0.386c0.016,0.011 0.031,0.021 0.046,0.03c0.064,0.037 0.121,0.059 0.171,0.066c0.05,0.008 0.089,-0.001 0.12,-0.027c0.004,-0.004 0.009,-0.008 0.012,-0.012c0.005,-0.004 0.008,-0.009 0.012,-0.015c0.016,-0.027 0.023,-0.06 0.021,-0.099c0,-0.041 -0.008,-0.085 -0.022,-0.136c-0.068,0.026 -0.137,0.04 -0.209,0.041c-0.05,0.001 -0.1,-0.003 -0.151,-0.012l0,-0.21c0.027,0.008 0.053,0.013 0.08,0.017c0.071,0.009 0.142,-0.001 0.209,-0.033c-0.035,-0.079 -0.078,-0.16 -0.128,-0.241c-0.05,-0.079 -0.103,-0.156 -0.161,-0.228l0,-0.502c0.058,0.04 0.115,0.085 0.17,0.136c0.084,0.078 0.159,0.164 0.226,0.257c0.068,0.092 0.128,0.184 0.18,0.274c0.026,-0.059 0.036,-0.128 0.031,-0.205c-0.006,-0.079 -0.032,-0.169 -0.081,-0.27l0.001,-0.001c-0.04,-0.044 -0.081,-0.091 -0.123,-0.139c-0.127,-0.15 -0.262,-0.316 -0.404,-0.501l0,-0.667l0.021,0.031c0.077,0.116 0.16,0.234 0.246,0.354c0.087,0.119 0.175,0.235 0.265,0.349c-0.027,-0.09 -0.062,-0.189 -0.103,-0.298c-0.041,-0.108 -0.088,-0.222 -0.141,-0.34c-0.054,-0.117 -0.112,-0.233 -0.177,-0.349c-0.035,-0.064 -0.072,-0.126 -0.111,-0.185l0,-0.357c0.039,0.047 0.074,0.094 0.106,0.142c0.04,0.056 0.075,0.108 0.103,0.157c0.03,0.048 0.054,0.089 0.072,0.122c0.076,0.135 0.14,0.268 0.193,0.397c0.052,0.129 0.095,0.252 0.129,0.368c0.033,0.117 0.059,0.223 0.077,0.319c0.017,0.097 0.029,0.18 0.037,0.25c0.064,0.075 0.127,0.146 0.189,0.211c0.06,0.065 0.118,0.123 0.173,0.173c0.075,0.07 0.141,0.12 0.196,0.151c0.055,0.032 0.102,0.047 0.141,0.046c0.038,-0.001 0.071,-0.013 0.096,-0.037c0.055,-0.05 0.065,-0.151 0.03,-0.303c-0.034,-0.149 -0.107,-0.34 -0.219,-0.573c-0.031,-0.046 -0.06,-0.093 -0.089,-0.14c-0.063,-0.106 -0.116,-0.212 -0.16,-0.317c-0.044,-0.106 -0.075,-0.208 -0.093,-0.305c-0.018,-0.097 -0.019,-0.185 -0.004,-0.263c0.015,-0.078 0.051,-0.142 0.105,-0.192c0.065,-0.057 0.134,-0.085 0.209,-0.083c0.076,0.002 0.158,0.033 0.247,0.093l-0.153,-0.211l0.248,-0.219c0.047,0.069 0.093,0.135 0.138,0.2m-1.771,5.482l0,-1.318c0.013,0.018 0.027,0.038 0.039,0.058c0.057,0.089 0.101,0.184 0.133,0.288c0.032,0.104 0.048,0.212 0.048,0.324c0.001,0.111 -0.018,0.224 -0.055,0.338c-0.037,0.106 -0.091,0.208 -0.165,0.31m0,0.397c0.037,0.011 0.074,0.02 0.112,0.027c0.136,0.027 0.271,0.032 0.405,0.014c0.136,-0.017 0.266,-0.062 0.391,-0.133l-0.141,-0.307c-0.081,0.043 -0.164,0.073 -0.251,0.086c-0.087,0.015 -0.176,0.017 -0.264,0.006c-0.084,-0.01 -0.169,-0.03 -0.252,-0.059l0,0.366Zm1.771,-3.946l0,-0.549l0.003,0.003c0.055,0.068 0.109,0.126 0.162,0.174c0.053,0.05 0.102,0.085 0.145,0.104c0.044,0.019 0.079,0.018 0.105,-0.005c0.027,-0.024 0.04,-0.062 0.041,-0.113c0,-0.05 -0.01,-0.109 -0.032,-0.177c-0.021,-0.067 -0.05,-0.14 -0.088,-0.216c-0.036,-0.077 -0.079,-0.153 -0.126,-0.229c-0.048,-0.077 -0.098,-0.148 -0.151,-0.215c-0.02,-0.025 -0.039,-0.048 -0.059,-0.071l0,-0.639c0.067,0.097 0.134,0.189 0.198,0.277c0.107,0.148 0.211,0.287 0.312,0.417c0.014,0.019 0.028,0.037 0.043,0.055l0,1.313c-0.05,0.034 -0.107,0.05 -0.167,0.048c-0.074,-0.004 -0.151,-0.028 -0.233,-0.073c-0.05,-0.028 -0.102,-0.063 -0.153,-0.104m0,0.524l0,-0.218c0.009,0.055 0.011,0.105 0.009,0.151c-0.002,0.023 -0.004,0.045 -0.009,0.067" style="fill:#fff;"/><path d="M149.361,129.771c0.797,0 1.447,-0.649 1.447,-1.446c0,-0.798 -0.65,-1.448 -1.447,-1.448c-0.797,0 -1.447,0.65 -1.447,1.448c0,0.797 0.65,1.446 1.447,1.446" style="fill:#ccc;"/><path d="M41.213,158.477c2.773,2.447 9.446,3.59 14.992,4.569c5.546,0.978 16.965,2.61 18.923,7.34c1.958,4.731 16.04,34.059 19.793,38.301" style="fill:none;stroke:#ffc745;stroke-width:0.96px;stroke-linecap:round;stroke-linejoin:round;stroke-dasharray:0.96,2.88;"/><path d="M34.304,222.142l-3.505,-0.618l6.307,-35.785l3.504,0.618l-6.306,35.785Z" style="fill:#9753fb;"/><path d="M20.989,186.357l3.503,-0.618l6.307,35.785l-3.503,0.618l-6.307,-35.785Z" style="fill:#f04152;"/><rect x="29.022" y="181.717" width="3.555" height="36.336" style="fill:#fff;"/><path d="M23.467,223.72l14.665,0l2.728,-21.282l-20.121,0l2.728,21.282Z" style="fill:#7fb0cf;"/><path d="M262.908,200.488l27.907,0c1.607,0 2.922,1.315 2.922,2.923l0,17.387c0,1.607 -1.315,2.922 -2.922,2.922l-27.907,0c-1.607,0 -2.922,-1.315 -2.922,-2.922l0,-17.387c0,-1.608 1.315,-2.923 2.922,-2.923" style="fill:#996250;"/><path d="M273.401,194.69l3.461,0l0,1.733l-3.461,0c-0.262,0 -0.502,0.108 -0.676,0.283c-0.175,0.174 -0.282,0.414 -0.282,0.676l0,3.625c0,0.263 0.107,0.503 0.282,0.677c0.174,0.174 0.414,0.282 0.676,0.282l3.461,0l0,1.734l-3.461,0c-0.741,0 -1.415,-0.303 -1.902,-0.79c-0.488,-0.488 -0.791,-1.161 -0.791,-1.903l0,-3.625c0,-0.741 0.303,-1.415 0.791,-1.902c0.487,-0.488 1.161,-0.79 1.902,-0.79m3.461,0l3.459,0c0.742,0 1.415,0.302 1.903,0.79c0.487,0.487 0.79,1.161 0.79,1.902l0,3.625c0,0.742 -0.303,1.415 -0.79,1.903c-0.488,0.487 -1.161,0.79 -1.903,0.79l-3.459,0l0,-1.734l3.459,0c0.263,0 0.503,-0.108 0.678,-0.282c0.174,-0.174 0.282,-0.414 0.282,-0.677l0,-3.625c0,-0.262 -0.108,-0.502 -0.282,-0.676c-0.175,-0.175 -0.415,-0.283 -0.678,-0.283l-3.459,0l0,-1.733Z" style="fill:#996250;fill-rule:nonzero;"/><path d="M293.737,203.411l0,7.778c0,1.607 -1.315,2.922 -2.921,2.922l-27.908,0c-1.607,0 -2.922,-1.315 -2.922,-2.922l0,-7.778c0,-1.608 1.315,-2.923 2.922,-2.923l27.908,0c1.606,0 2.921,1.315 2.921,2.923" style="fill:#7d4b3b;"/><path d="M293.737,203.411l0,7.046c0,1.607 -1.315,2.922 -2.921,2.922l-27.908,0c-1.607,0 -2.922,-1.315 -2.922,-2.922l0,-7.046c0,-1.608 1.315,-2.923 2.922,-2.923l27.908,0c1.606,0 2.921,1.315 2.921,2.923" style="fill:#996250;"/><rect x="265.586" y="200.488" width="2.194" height="23.231" style="fill:#ffd277;"/><rect x="285.944" y="200.488" width="2.194" height="23.231" style="fill:#ffd277;"/><path d="M265.694,211.131l0.989,0l0,0.783l-0.989,0c-0.026,0 -0.05,0.01 -0.066,0.027c-0.017,0.016 -0.026,0.04 -0.026,0.065l0,2.746c0,0.026 0.009,0.049 0.026,0.065l0,0.002c0.016,0.015 0.04,0.025 0.066,0.025l0.989,0l0,0.783l-0.989,0c-0.239,0 -0.458,-0.098 -0.617,-0.257l-0.001,-0.001l-0.001,0c-0.158,-0.16 -0.256,-0.378 -0.256,-0.617l0,-2.746c0,-0.24 0.098,-0.458 0.256,-0.617l0.002,-0.001c0.158,-0.159 0.377,-0.257 0.617,-0.257m0.989,0l0.988,0c0.242,0 0.46,0.098 0.618,0.257c0.159,0.158 0.257,0.377 0.257,0.618l0,2.746c0,0.241 -0.098,0.46 -0.257,0.618c-0.158,0.159 -0.377,0.257 -0.618,0.257l-0.988,0l0,-0.783l0.988,0c0.025,0 0.049,-0.01 0.065,-0.027c0.017,-0.017 0.027,-0.04 0.027,-0.065l0,-2.746c0,-0.025 -0.01,-0.048 -0.027,-0.065c-0.016,-0.017 -0.04,-0.027 -0.065,-0.027l-0.988,0l0,-0.783Z" style="fill:#fff;fill-rule:nonzero;"/><path d="M266.682,213.662c0.134,0 0.243,0.109 0.243,0.242l0,1.166c0,0.133 -0.109,0.242 -0.243,0.242c-0.133,0 -0.242,-0.109 -0.242,-0.242l0,-1.166c0,-0.133 0.109,-0.242 0.242,-0.242" style="fill:#fff;"/><path d="M286.052,211.131l0.989,0l0,0.783l-0.989,0c-0.025,0 -0.049,0.01 -0.066,0.027c-0.016,0.016 -0.027,0.04 -0.027,0.065l0,2.746c0,0.026 0.011,0.049 0.026,0.065l0.002,0.002c0.016,0.015 0.039,0.025 0.065,0.025l0.989,0l0,0.783l-0.989,0c-0.239,0 -0.457,-0.098 -0.616,-0.257l-0.001,-0.001l-0.001,0c-0.158,-0.16 -0.257,-0.378 -0.257,-0.617l0,-2.746c0,-0.24 0.099,-0.458 0.257,-0.617l0.002,-0.001c0.158,-0.159 0.376,-0.257 0.616,-0.257m0.989,0l0.989,0c0.24,0 0.459,0.098 0.618,0.257c0.158,0.158 0.257,0.377 0.257,0.618l0,2.746c0,0.241 -0.099,0.46 -0.257,0.618c-0.159,0.159 -0.378,0.257 -0.618,0.257l-0.989,0l0,-0.783l0.989,0c0.025,0 0.047,-0.01 0.064,-0.027c0.017,-0.017 0.028,-0.04 0.028,-0.065l0,-2.746c0,-0.025 -0.011,-0.048 -0.028,-0.065c-0.017,-0.017 -0.039,-0.027 -0.064,-0.027l-0.989,0l0,-0.783Z" style="fill:#fff;fill-rule:nonzero;"/><path d="M287.041,213.662c0.133,0 0.242,0.109 0.242,0.242l0,1.166c0,0.133 -0.109,0.242 -0.242,0.242c-0.133,0 -0.242,-0.109 -0.242,-0.242l0,-1.166c0,-0.133 0.109,-0.242 0.242,-0.242" style="fill:#fff;"/><rect x="79.835" y="146.582" width="3.691" height="75.693" style="fill:#ffd277;"/><rect x="230.845" y="146.582" width="3.691" height="75.693" style="fill:#ffd277;"/></g></svg>