<?xml version="1.0" standalone="no"?>
<!DOCTYPE svg PUBLIC "-//W3C//DTD SVG 20010904//EN"
 "http://www.w3.org/TR/2001/REC-SVG-20010904/DTD/svg10.dtd">
<svg version="1.0" xmlns="http://www.w3.org/2000/svg"
 width="673.000000pt" height="673.000000pt" viewBox="0 0 673.000000 673.000000"
 preserveAspectRatio="xMidYMid meet">
<metadata>
Created by potrace 1.11, written by Peter Selinger 2001-2013
</metadata>
<g transform="translate(0.000000,673.000000) scale(0.100000,-0.100000)"
fill="#000000" stroke="none">
<path d="M3150 6694 c-19 -2 -84 -9 -144 -14 -325 -32 -690 -129 -1006 -267
-552 -242 -1036 -637 -1383 -1126 -241 -340 -448 -806 -537 -1207 -128 -579
-96 -1196 93 -1755 333 -985 1100 -1757 2085 -2099 570 -197 1202 -238 1796
-115 518 108 1010 340 1431 675 147 117 419 392 529 534 343 443 557 918 655
1455 41 224 46 295 46 600 0 192 -5 334 -13 395 -105 763 -404 1385 -916 1909
-554 566 -1248 905 -2051 1001 -91 11 -521 22 -585 14z m675 -122 c237 -37
407 -79 615 -151 806 -278 1451 -847 1825 -1606 162 -329 255 -629 311 -1005
21 -145 30 -551 15 -719 -85 -965 -604 -1840 -1413 -2384 -496 -333 -1042
-514 -1648 -546 -1102 -59 -2158 449 -2798 1345 -327 459 -525 989 -583 1559
-14 141 -14 479 0 620 64 631 299 1209 695 1710 102 129 373 399 501 501 443
350 938 571 1485 663 204 34 290 40 585 36 219 -2 309 -8 410 -23z"/>
<path d="M1865 4992 c-109 -124 -1387 -1556 -1422 -1593 l-35 -36 344 -385
c189 -211 525 -587 747 -836 222 -249 410 -460 418 -468 12 -11 62 -14 287
-14 l272 0 65 93 c36 50 220 313 409 582 189 270 402 573 474 675 71 102 235
336 364 520 130 184 356 507 504 718 149 211 279 399 290 418 11 19 23 34 27
34 4 0 73 -73 152 -162 80 -90 320 -359 534 -598 213 -239 417 -467 452 -507
l64 -72 -750 -840 c-413 -463 -751 -846 -751 -851 0 -6 98 -10 274 -10 l274 0
85 93 c46 50 389 433 760 850 l677 759 -88 98 c-48 54 -388 436 -757 849
l-670 750 -280 0 c-154 0 -288 -3 -297 -7 -16 -7 -77 -91 -403 -552 -87 -124
-218 -308 -290 -410 -72 -102 -257 -363 -410 -580 -154 -217 -318 -449 -365
-516 -47 -66 -215 -306 -375 -532 -159 -226 -292 -411 -295 -411 -8 1 -1165
1302 -1165 1310 0 8 110 132 969 1093 289 324 526 592 526 597 0 5 -125 9
-277 9 l-278 0 -60 -68z"/>
</g>
</svg>
